<?xml version="1.0" encoding="utf-8"?>
<!-- Generator: Adobe Illustrator 16.0.0, SVG Export Plug-In . SVG Version: 6.00 Build 0)  -->
<!DOCTYPE svg PUBLIC "-//W3C//DTD SVG 1.1//EN" "http://www.w3.org/Graphics/SVG/1.1/DTD/svg11.dtd">
<svg version="1.1" id="Layer_1" xmlns="http://www.w3.org/2000/svg" xmlns:xlink="http://www.w3.org/1999/xlink" x="0px" y="0px"
	 width="149px" height="35px" viewBox="0 0 149 35" enable-background="new 0 0 149 35" xml:space="preserve">
<g id="Layer_1_1_">
	<g>
		<g>
			<g>
				<path fill="#3F4079" d="M50.071,7.468c4.318,0,7.84,2.318,9.146,6.308h-4.492c-0.918-1.871-2.59-2.791-4.684-2.791
					c-3.408,0-5.83,2.483-5.83,6.444c0,3.935,2.422,6.442,5.83,6.442c2.094,0,3.766-0.918,4.684-2.816h4.492
					c-1.307,4.018-4.828,6.305-9.146,6.305c-5.611,0-9.877-4.1-9.877-9.932C40.194,11.6,44.459,7.468,50.071,7.468z"/>
				<path fill="#3F4079" d="M69.047,27.441c-4.463,0-7.84-3.125-7.84-7.979c0-4.882,3.487-7.975,7.952-7.975
					c4.463,0,7.947,3.093,7.947,7.975C77.105,24.318,73.534,27.441,69.047,27.441z M69.047,24.04c2.062,0,4.041-1.505,4.041-4.577
					c0-3.095-1.926-4.574-3.99-4.574c-2.062,0-3.93,1.479-3.93,4.574C65.168,22.535,66.952,24.04,69.047,24.04z"/>
				<path fill="#3F4079" d="M85.533,27.441c-3.875,0-6.582-2.258-6.752-5.133h3.934c0.141,1.172,1.229,2.062,2.791,2.062
					c1.531,0,2.371-0.693,2.371-1.589c0-2.761-8.73-1.005-8.73-6.665c0-2.568,2.285-4.63,6.105-4.63
					c3.738,0,6.002,2.035,6.227,5.105h-3.74c-0.107-1.2-1.061-2.012-2.596-2.012c-1.453,0-2.205,0.587-2.205,1.481
					c0,2.815,8.564,1.057,8.678,6.72C91.615,25.434,89.299,27.441,85.533,27.441z"/>
				<path fill="#3F4079" d="M95.043,14.945h-1.844v-3.206h1.844V7.916h3.934v3.823h3.461v3.206h-3.461v7.477
					c0,1.03,0.418,1.479,1.646,1.479h1.814v3.291H99.98c-2.957,0-4.939-1.254-4.939-4.797v-7.45H95.043z"/>
				<path fill="#3F4079" d="M116.16,11.739h4.16l-9.57,22.759h-4.158l3.354-7.697l-6.197-15.062h4.383l3.986,10.796L116.16,11.739z"
					/>
				<path fill="#FA7268" d="M121.152,27.386c-1.42,0-2.426-1.002-2.426-2.286c0-1.283,1.006-2.289,2.426-2.289
					c1.365,0,2.371,1.004,2.371,2.289C123.523,26.383,122.518,27.386,121.152,27.386z"/>
			</g>
		</g>
		<path fill="#FA7268" d="M25.188,23l-0.938,0.98c-1.781,1.854-4.176,2.877-6.748,2.877c-5.16,0-9.359-4.199-9.359-9.356
			c0-5.158,4.199-9.356,9.359-9.356c1.236,0,2.457,0.245,3.582,0.713l2.193-2.02c-1.768-0.958-3.754-1.466-5.775-1.466
			c-6.691,0-12.133,5.442-12.133,12.129c0,6.687,5.441,12.129,12.133,12.129c2.873,0,5.582-0.987,7.754-2.802l1.922,1.775
			c-2.678,2.347-6.066,3.625-9.676,3.625c-8.125,0-14.729-6.608-14.729-14.729c0-8.119,6.604-14.728,14.729-14.728
			c3.609,0,6.998,1.278,9.676,3.625L21.209,11.9c-1.09-0.725-2.369-1.116-3.707-1.116c-3.701,0-6.715,3.012-6.715,6.715
			c0,3.704,3.014,6.715,6.715,6.715c1.766,0,3.635-0.733,5.123-2.011c0.299-0.258,0.574-0.526,0.824-0.812l-2.037-1.877
			c-0.943,1.105-2.453,1.93-3.91,1.93c-2.176,0-3.943-1.771-3.943-3.943s1.768-3.943,3.943-3.943c2.188,0,3.293,0.975,4.07,1.632
			l9.602-8.702l-0.967-1.02c-1.621-1.708-3.527-3.053-5.674-3.995C22.313,0.496,19.946,0,17.502,0C7.852,0,0,7.851,0,17.5
			C0,27.148,7.852,35,17.502,35c2.443,0,4.811-0.496,7.031-1.473c2.146-0.943,4.053-2.286,5.674-3.994l0.967-1.02L25.188,23z"/>
	</g>
</g>
<g id="Layer_2">
</g>
</svg>
