<?xml version="1.0" encoding="utf-8"?>
<!-- Generator: Adobe Illustrator 16.0.0, SVG Export Plug-In . SVG Version: 6.00 Build 0)  -->
<!DOCTYPE svg PUBLIC "-//W3C//DTD SVG 1.1//EN" "http://www.w3.org/Graphics/SVG/1.1/DTD/svg11.dtd">
<svg version="1.1" id="Layer_1" xmlns="http://www.w3.org/2000/svg" xmlns:xlink="http://www.w3.org/1999/xlink" x="0px" y="0px"
	 width="1400px" height="600px" viewBox="0 0 1400 600" enable-background="new 0 0 1400 600" xml:space="preserve">
<g>
	<g>
		<defs>
			<rect id="SVGID_1_" width="1400" height="600"/>
		</defs>
		<clipPath id="SVGID_2_">
			<use xlink:href="#SVGID_1_"  overflow="visible"/>
		</clipPath>
		<g clip-path="url(#SVGID_2_)">
			<g>
				<circle fill="#FFDA8F" cx="490.037" cy="562.707" r="5.396"/>
				<circle fill="#FFDA8F" cx="522.412" cy="572.082" r="5.396"/>
				<circle fill="#FFDA8F" cx="552.088" cy="543.282" r="5.396"/>
			</g>
			<g>
				<path d="M490.037,570.801c4.463,0,8.094-3.631,8.094-8.094s-3.631-8.094-8.094-8.094s-8.094,3.631-8.094,8.094
					S485.574,570.801,490.037,570.801z M490.037,560.01c1.488,0,2.698,1.209,2.698,2.697s-1.21,2.697-2.698,2.697
					s-2.697-1.209-2.697-2.697S488.549,560.01,490.037,560.01z"/>
				<path d="M522.412,580.176c4.462,0,8.094-3.631,8.094-8.094s-3.632-8.094-8.094-8.094c-4.463,0-8.094,3.631-8.094,8.094
					S517.949,580.176,522.412,580.176z M522.412,569.385c1.487,0,2.697,1.209,2.697,2.697s-1.21,2.697-2.697,2.697
					c-1.488,0-2.698-1.209-2.698-2.697S520.924,569.385,522.412,569.385z"/>
				<path d="M552.088,551.376c4.463,0,8.094-3.631,8.094-8.093c0-4.463-3.631-8.094-8.094-8.094s-8.094,3.631-8.094,8.094
					C543.994,547.745,547.625,551.376,552.088,551.376z M552.088,540.584c1.487,0,2.697,1.211,2.697,2.699
					c0,1.483-1.21,2.697-2.697,2.697c-1.488,0-2.698-1.214-2.698-2.697C549.39,541.795,550.601,540.584,552.088,540.584z"/>
				<circle cx="543.994" cy="564.326" r="2.698"/>
				<circle cx="659.418" cy="431.336" r="2.698"/>
				<circle cx="441.343" cy="462" r="2.698"/>
				<circle cx="417.997" cy="452.663" r="2.698"/>
				<circle cx="650.245" cy="447.793" r="2.698"/>
				<circle cx="502.178" cy="543.282" r="2.698"/>
			</g>
		</g>
	</g>
	<g>
		<defs>
			<rect id="SVGID_3_" width="1400" height="600"/>
		</defs>
		<clipPath id="SVGID_4_">
			<use xlink:href="#SVGID_3_"  overflow="visible"/>
		</clipPath>
		<g clip-path="url(#SVGID_4_)">
			<path fill="#FF7B79" d="M530.388,471.615l-45.186,10.804c-6.149-25.716-1.021-48.981,11.459-51.965
				C509.141,427.47,524.239,445.898,530.388,471.615z"/>
			<path fill="#FFFBE4" d="M569.817,462.188c5.361,22.435,0.884,42.728-10.002,45.328c-10.892,2.604-24.063-13.469-29.43-35.897
				L569.817,462.188z"/>
		</g>
	</g>
	<g>
		<defs>
			<rect id="SVGID_5_" width="1400" height="600"/>
		</defs>
		<clipPath id="SVGID_6_">
			<use xlink:href="#SVGID_5_"  overflow="visible"/>
		</clipPath>
		<g clip-path="url(#SVGID_6_)">
			<path fill="#FF7B79" d="M327.121,582.814c0,29.274,17.978,54.344,43.478,64.735l13.145-41.842
				c-7.904-4.559-13.229-13.104-13.229-22.896c0-12.631,8.854-23.188,20.686-25.779v-43.854
				C355.328,516.072,327.121,546.144,327.121,582.814L327.121,582.814z"/>
			<path fill="#FFFBE4" d="M402.537,513.184v43.854c0.794,0.17,1.573,0.38,2.339,0.627l21.959-37.945
				C419.373,516.152,411.176,513.877,402.537,513.184z"/>
			<path fill="#FFDA8F" d="M462.185,558.265l-39.614,18.7c0.429,1.883,0.65,3.84,0.65,5.853c0,14.577-11.798,26.396-26.354,26.396
				c-0.777,0-1.548-0.034-2.312-0.103l-13.141,41.846c4.97,1.127,10.138,1.721,15.449,1.721c38.519,0,69.745-31.275,69.745-69.859
				C466.612,574.176,465.048,565.9,462.185,558.265L462.185,558.265z"/>
			<path fill="#FFDA8F" d="M462.55,545.526c-5.745-9.989-13.641-18.576-23.054-25.134l-24.812,42.973
				c1.105,1.016,2.126,2.129,3.047,3.322L462.55,545.526z"/>
			<path d="M396.064,655.227l0.802-0.566c-5.365,0-10.71-0.596-15.889-1.771c-0.54-0.124-1.008-0.47-1.282-0.946
				c-0.274-0.48-0.337-1.061-0.172-1.587l13.142-41.845c0.26-0.831,1.019-1.389,1.89-1.389l0.271,0.016
				c0.52,0.03,1.52,0.088,2.042,0.088c6.503-0.001,12.622-2.538,17.229-7.146c4.604-4.617,7.14-10.748,7.14-17.265
				c0-1.842-0.203-3.662-0.604-5.412c-0.097-0.438-0.043-0.902,0.152-1.31c0.197-0.403,0.529-0.731,0.934-0.921l39.619-18.703
				c0.258-0.121,0.553-0.186,0.852-0.186c0.257,0,0.514,0.049,0.741,0.142c0.512,0.206,0.916,0.622,1.112,1.145
				c3.025,8.063,4.555,16.556,4.548,25.235c0,4.687-0.454,9.373-1.348,13.933c-0.871,4.441-2.174,8.825-3.872,13.025
				c-1.675,4.136-3.741,8.125-6.139,11.859c-2.318,3.608-4.975,7.029-7.897,10.171h-0.48l-0.001,0.481
				c-0.348,0.27-0.771,0.415-1.219,0.415c-0.508,0-0.989-0.19-1.357-0.536c-0.388-0.364-0.609-0.856-0.625-1.387
				c-0.017-0.529,0.176-1.035,0.54-1.422c11.884-12.641,18.431-29.168,18.434-46.538c0-7.146-1.102-14.179-3.274-20.901l-0.297-0.92
				l-36.236,17.104l0.091,0.622c0.195,1.346,0.294,2.725,0.294,4.095c0,3.833-0.749,7.551-2.227,11.048
				c-1.43,3.384-3.473,6.419-6.073,9.021c-2.601,2.61-5.63,4.657-9.005,6.085c-3.493,1.481-7.204,2.232-11.031,2.232l-0.229-0.002
				l-0.646-0.022l-12.024,38.295l0.951,0.17c3.903,0.699,7.924,1.055,11.95,1.055c10.326,0,20.24-2.268,29.465-6.736
				c0.271-0.13,0.564-0.196,0.865-0.196c0.756,0,1.458,0.439,1.788,1.119c0.23,0.477,0.262,1.014,0.087,1.515
				c-0.174,0.503-0.533,0.906-1.009,1.138c-4.765,2.31-9.79,4.086-14.94,5.281c-5.307,1.229-10.773,1.853-16.249,1.853l0.833,0.833
				L396.064,655.227z M370.596,649.537c-0.259,0-0.509-0.049-0.743-0.146c-13.062-5.321-24.193-14.313-32.193-26.006
				c-8.193-11.972-12.523-26.001-12.523-40.57c0-18.173,6.788-35.516,19.114-48.832c12.259-13.245,28.875-21.334,46.786-22.777
				c0.055-0.005,0.107-0.007,0.162-0.007c0.499,0,0.975,0.187,1.342,0.524c0.407,0.376,0.64,0.907,0.64,1.458v43.854
				c0,0.925-0.655,1.74-1.561,1.938c-11.082,2.433-19.124,12.459-19.124,23.845c0,8.709,4.688,16.822,12.235,21.174
				c0.812,0.469,1.183,1.419,0.901,2.312l-13.144,41.845c-0.165,0.527-0.547,0.967-1.048,1.201
				C371.179,649.473,370.887,649.537,370.596,649.537z M388.253,515.484c-33.72,4.307-59.147,33.252-59.147,67.33
				c0,26.418,15.455,50.619,39.376,61.655l0.878,0.404l12.02-38.278l-0.518-0.355c-7.725-5.31-12.334-14.066-12.334-23.426
				c0-6.51,2.255-12.867,6.35-17.905c3.576-4.398,8.324-7.597,13.733-9.247l0.602-0.185v-40.115L388.253,515.484z M438.106,641.146
				c-1.095,0-1.984-0.891-1.984-1.984s0.89-1.984,1.984-1.984c1.094,0,1.983,0.891,1.983,1.984S439.201,641.146,438.106,641.146z
				 M417.734,568.675c-0.619,0-1.192-0.282-1.572-0.773c-0.854-1.104-1.804-2.138-2.822-3.074c-0.679-0.624-0.837-1.653-0.376-2.448
				l24.813-42.973c0.277-0.479,0.747-0.824,1.287-0.945c0.141-0.031,0.286-0.048,0.432-0.048c0.408,0,0.8,0.123,1.134,0.356
				c9.628,6.702,17.803,15.613,23.642,25.77c0.274,0.479,0.338,1.057,0.173,1.586c-0.165,0.525-0.546,0.963-1.046,1.199
				l-44.818,21.161C418.314,568.608,418.021,568.675,417.734,568.675z M417.18,563.013l0.685,0.745l0.423,0.475l41.447-19.57
				l-0.515-0.812c-4.813-7.616-11.151-14.526-18.329-19.983l-0.769-0.585L417.18,563.013z M404.875,559.649
				c-0.206,0-0.411-0.032-0.61-0.098c-0.687-0.225-1.408-0.419-2.143-0.577c-0.91-0.194-1.569-1.01-1.568-1.938v-43.854
				c0-0.552,0.232-1.083,0.639-1.457c0.366-0.338,0.845-0.524,1.344-0.524c0.053,0,0.105,0.003,0.159,0.007
				c8.718,0.699,17.127,2.96,24.995,6.72c0.499,0.237,0.877,0.675,1.041,1.202c0.163,0.527,0.099,1.104-0.179,1.584l-21.958,37.944
				C406.24,559.27,405.582,559.649,404.875,559.649z M404.521,554.312l19.506-33.706l-0.889-0.375
				c-5.636-2.382-11.578-3.979-17.661-4.748l-0.958-0.121v38.95H404.521z"/>
		</g>
	</g>
	<g>
		<defs>
			<rect id="SVGID_7_" width="1400" height="600"/>
		</defs>
		<clipPath id="SVGID_8_">
			<use xlink:href="#SVGID_7_"  overflow="visible"/>
		</clipPath>
		<g clip-path="url(#SVGID_8_)">
			<path fill="#FFC477" d="M923.923,487.908l-32.335,99.679c-0.064,0.199-0.133,0.397-0.207,0.594
				c-2.525,6.728-9.928,10.341-16.838,8.102l-72.35-23.473c-7.108-2.307-11.002-9.937-8.696-17.043l37.438-115.405
				c1.981-6.11,7.897-9.847,14.033-9.312c1.005,0.088,2.016,0.291,3.011,0.615l57.475,18.644c1.953,0.637,3.716,1.697,5.173,3.097
				c2.935,2.801,3.229,5.23,7.403,13.646c4.653,10.138,6.109,11.493,6.479,15.347C924.7,484.241,924.505,486.114,923.923,487.908z"
				/>
			<path fill="#FFDAAA" d="M923.923,487.908l-32.335,99.679c-0.064,0.199-0.133,0.397-0.207,0.594
				c-1.006-0.088-2.014-0.291-3.013-0.611l-72.353-23.474c-7.105-2.306-11.001-9.938-8.692-17.041l37.438-115.408
				c0.065-0.2,0.132-0.398,0.207-0.598c1.005,0.088,2.013,0.291,3.011,0.615l57.475,18.644c1.953,0.637,3.717,1.696,5.173,3.097
				c1.198,1.142,2.188,2.512,2.904,4.043l4.499,9.604l5.21,10.812c0.693,1.438,1.122,2.974,1.271,4.533
				C924.7,484.241,924.505,486.114,923.923,487.908z"/>
			<path fill="#DE6B69" d="M942.46,543.256l-23.472,72.356c-1.308,4.021-3.82,7.319-7.016,9.612
				c-4.768,3.435-11.055,4.626-17.072,2.676l-47.264-15.331c-10.043-3.26-15.546-14.042-12.283-24.089l23.472-72.355
				c2.436-7.507,9.077-12.475,16.47-13.146c2.497-0.228,5.081,0.034,7.617,0.857l47.261,15.331
				C940.221,522.428,945.719,533.213,942.46,543.256z"/>
			<path fill="#FF7B79" d="M942.46,543.256l-23.472,72.356c-1.308,4.021-3.82,7.319-7.016,9.612
				c-2.494,0.229-5.081-0.033-7.614-0.855l-47.264-15.332c-10.045-3.257-15.546-14.042-12.288-24.085l23.476-72.358
				c1.306-4.021,3.815-7.318,7.013-9.611c2.497-0.229,5.081,0.032,7.617,0.855l47.261,15.331
				C940.221,522.428,945.719,533.213,942.46,543.256z"/>
			<path fill="#DBDBDB" d="M892.18,579.523l-2.758,8.498c-0.487,1.503-2.099,2.322-3.599,1.84l-8.501-2.762
				c-1.502-0.484-2.325-2.1-1.838-3.602l2.757-8.498c0.487-1.503,2.101-2.326,3.603-1.838l8.502,2.758
				C891.845,576.408,892.666,578.021,892.18,579.523z"/>
			<path fill="#DBDBDB" d="M930.516,537.497l-2.953,9.104c-1.051,3.238-4.524,5.017-7.768,3.966l-46.909-15.221
				c-3.234-1.05-5.014-4.526-3.962-7.768l2.953-9.104c1.05-3.233,4.53-5.013,7.768-3.962l46.909,15.218
				C929.794,530.781,931.565,534.26,930.516,537.497z"/>
			<path fill="#F2F2F2" d="M930.516,537.497l-2.953,9.104c-1.051,3.238-4.524,5.017-7.768,3.966l-36.958-11.989
				c-3.238-1.051-5.014-4.529-3.962-7.771l2.953-9.104c1.051-3.236,4.529-5.013,7.768-3.962l36.958,11.988
				C929.794,530.781,931.565,534.26,930.516,537.497z"/>
			<g>
				<path fill="#DBDBDB" d="M869.833,572.275l-2.757,8.498c-0.487,1.502-2.103,2.322-3.604,1.837l-8.5-2.761
					c-1.499-0.482-2.325-2.101-1.839-3.603l2.758-8.498c0.487-1.503,2.104-2.324,3.604-1.837l8.501,2.757
					C869.498,569.159,870.32,570.771,869.833,572.275z"/>
				<path fill="#DBDBDB" d="M899.389,557.299l-2.757,8.499c-0.487,1.502-2.099,2.324-3.599,1.837l-8.501-2.758
					c-1.502-0.486-2.325-2.099-1.837-3.601l2.756-8.499c0.486-1.501,2.101-2.324,3.602-1.836l8.502,2.758
					C899.054,554.185,899.876,555.798,899.389,557.299z"/>
			</g>
			<path fill="#FDC75B" d="M922.008,564.637l-2.758,8.499c-0.486,1.501-2.098,2.324-3.601,1.837l-8.498-2.758
				c-1.503-0.486-2.325-2.099-1.839-3.602l2.758-8.498c0.483-1.502,2.099-2.325,3.603-1.838l8.498,2.758
				C921.673,561.521,922.495,563.135,922.008,564.637z"/>
			<g>
				<path fill="#DBDBDB" d="M877.043,550.05l-2.757,8.499c-0.487,1.502-2.104,2.324-3.604,1.836l-8.501-2.758
					c-1.499-0.486-2.323-2.099-1.839-3.602l2.758-8.498c0.486-1.502,2.104-2.323,3.604-1.837l8.5,2.758
					C876.707,546.936,877.53,548.549,877.043,550.05z"/>
				<path fill="#DBDBDB" d="M885.323,600.656l-2.757,8.501c-0.487,1.502-2.103,2.325-3.603,1.839l-8.501-2.758
					c-1.501-0.487-2.324-2.104-1.838-3.604l2.758-8.502c0.487-1.499,2.103-2.321,3.604-1.834l8.502,2.758
					C884.988,597.545,885.811,599.157,885.323,600.656z"/>
				<path fill="#DBDBDB" d="M862.979,593.407l-2.759,8.502c-0.483,1.501-2.101,2.324-3.603,1.837l-8.501-2.758
					c-1.499-0.486-2.325-2.104-1.838-3.604l2.758-8.501c0.486-1.5,2.103-2.32,3.603-1.834l8.5,2.757
					C862.642,590.295,863.465,591.908,862.979,593.407z"/>
			</g>
			<path fill="#FDC75B" d="M914.37,588.181l-8.562,26.396c-0.831,2.562-3.581,3.967-6.143,3.137l-4.663-1.513
				c-2.561-0.831-3.963-3.581-3.132-6.146l8.562-26.394c0.728-2.232,3.122-3.453,5.354-2.729l5.855,1.9
				C913.873,583.555,915.094,585.948,914.37,588.181z"/>
			<g>
				<path fill="#F2F2F2" d="M892.18,579.523l-0.817,2.524c-0.487,1.502-2.103,2.325-3.602,1.839l-8.502-2.758
					c-1.501-0.487-2.323-2.101-1.837-3.603l0.819-2.526c0.484-1.503,2.101-2.326,3.603-1.838l8.502,2.758
					C891.845,576.408,892.666,578.021,892.18,579.523z"/>
				<path fill="#F2F2F2" d="M869.833,572.275l-0.819,2.523c-0.484,1.502-2.1,2.325-3.604,1.838l-8.5-2.758
					c-1.499-0.484-2.326-2.101-1.839-3.603l0.817-2.527c0.487-1.503,2.104-2.324,3.604-1.837l8.501,2.757
					C869.498,569.159,870.32,570.771,869.833,572.275z"/>
				<path fill="#F2F2F2" d="M899.389,557.299l-0.817,2.529c-0.487,1.502-2.103,2.325-3.602,1.838l-8.502-2.758
					c-1.501-0.486-2.323-2.103-1.836-3.604l0.819-2.526c0.485-1.501,2.101-2.324,3.602-1.836l8.502,2.758
					C899.054,554.185,899.876,555.798,899.389,557.299z"/>
			</g>
			<path fill="#FFDA8F" d="M922.008,564.637l-0.82,2.528c-0.484,1.502-2.099,2.325-3.602,1.838l-8.499-2.757
				c-1.503-0.487-2.324-2.102-1.837-3.602l0.82-2.529c0.483-1.502,2.099-2.325,3.603-1.838l8.498,2.758
				C921.673,561.521,922.495,563.135,922.008,564.637z"/>
			<g>
				<path fill="#F2F2F2" d="M877.043,550.05l-0.82,2.529c-0.484,1.502-2.1,2.324-3.604,1.837l-8.5-2.758
					c-1.499-0.486-2.326-2.104-1.839-3.604l0.818-2.525c0.486-1.502,2.104-2.323,3.604-1.839l8.5,2.76
					C876.707,546.936,877.53,548.549,877.043,550.05z"/>
				<path fill="#F2F2F2" d="M885.323,600.656l-0.821,2.531c-0.486,1.502-2.099,2.322-3.598,1.838l-8.502-2.761
					c-1.502-0.483-2.324-2.1-1.837-3.602l0.817-2.531c0.487-1.499,2.103-2.318,3.604-1.834l8.502,2.758
					C884.988,597.545,885.811,599.157,885.323,600.656z"/>
				<path fill="#F2F2F2" d="M862.979,593.407l-0.818,2.53c-0.487,1.503-2.103,2.322-3.604,1.838l-8.501-2.761
					c-1.498-0.483-2.322-2.1-1.838-3.603l0.821-2.53c0.486-1.5,2.103-2.32,3.603-1.834l8.5,2.757
					C862.642,590.295,863.465,591.908,862.979,593.407z"/>
			</g>
			<path fill="#FFDA8F" d="M914.37,588.181l-6.625,20.427c-0.832,2.562-3.582,3.967-6.146,3.136l-4.663-1.514
				c-2.561-0.829-3.963-3.58-3.131-6.146l6.624-20.423c0.728-2.232,3.122-3.453,5.354-2.729l5.855,1.9
				C913.873,583.555,915.094,585.948,914.37,588.181z"/>
			<path fill="#FFB655" d="M924.509,482.397l-16.127-5.231c-2.729-0.887-4.229-3.82-3.343-6.553l5.584-17.212
				c1.199,1.142,2.188,2.511,2.905,4.04l4.5,9.604l5.209,10.812C923.933,479.299,924.358,480.835,924.509,482.397z"/>
			<path fill="#994131" d="M823.502,596.095c-0.562,1.733-1.782,3.076-3.295,3.854c-1.515,0.77-3.317,0.97-5.052,0.403
				l-38.609-12.521c-3.466-1.125-5.382-4.881-4.258-8.347c0.562-1.734,1.783-3.076,3.295-3.853c1.516-0.771,3.316-0.97,5.052-0.407
				l38.609,12.524C822.711,588.873,824.627,592.628,823.502,596.095z"/>
			<path fill="#C75540" d="M827.591,583.488c-0.562,1.732-1.782,3.077-3.295,3.852c-1.514,0.771-3.317,0.969-5.051,0.406
				l-38.609-12.524c-3.467-1.125-5.383-4.88-4.259-8.346c0.562-1.735,1.784-3.076,3.296-3.851c1.518-0.771,3.316-0.973,5.051-0.407
				l38.609,12.522C826.8,576.269,828.715,580.023,827.591,583.488z"/>
			<path fill="#ED664C" d="M831.68,570.885c-0.562,1.734-1.779,3.077-3.294,3.854c-1.516,0.771-3.314,0.97-5.053,0.406
				l-38.609-12.523c-3.466-1.124-5.382-4.881-4.258-8.347c0.562-1.734,1.783-3.077,3.296-3.854c1.518-0.769,3.316-0.97,5.055-0.406
				l38.605,12.524C830.889,563.662,832.804,567.419,831.68,570.885z"/>
			<path fill="#ED664C" d="M835.769,558.28c-0.562,1.731-1.779,3.077-3.295,3.851c-1.514,0.771-3.314,0.97-5.052,0.407
				l-38.605-12.524c-3.47-1.125-5.386-4.881-4.261-8.347c0.399-1.234,1.139-2.271,2.072-3.047c0.377-0.312,0.788-0.584,1.224-0.805
				c1.517-0.771,3.315-0.972,5.054-0.407l38.606,12.525C834.979,551.058,836.893,554.812,835.769,558.28z"/>
			<path fill="#ED664C" d="M831.509,549.934l-38.604-12.522c-3.47-1.124-5.386-4.881-4.262-8.347l0,0
				c1.124-3.468,4.884-5.385,8.351-4.261l38.604,12.525c3.469,1.124,5.386,4.882,4.262,8.347l0,0
				C838.733,549.142,834.977,551.058,831.509,549.934z"/>
			<path fill="#FDC75B" d="M805.991,574.53c2.648-9.537-1.535-19.36-9.61-24.245c-1.643-0.993-3.447-1.784-5.39-2.324l0.001-0.001
				l-8.036-2.604c-18.474-5.119-34.326,14.814-24.394,31.723c2.733,4.664,7.219,8.315,12.841,9.878l6.275,2.036l0.002-0.007
				c0.566,0.209,1.144,0.399,1.733,0.562c1.328,0.37,2.66,0.604,3.982,0.72c9.584,0.811,18.72-4.896,22.066-14.114l0.008-0.023
				C805.67,575.605,805.841,575.076,805.991,574.53z"/>
			<path fill="#FFDA8F" d="M805.479,576.127l-0.009,0.023c-3.349,9.219-12.481,14.926-22.066,14.112
				c-8.067-4.888-12.255-14.707-9.604-24.237c0.014-0.051,0.021-0.094,0.036-0.141l0.008-0.021
				c2.88-10.064,12.459-16.432,22.541-15.579c8.076,4.885,12.265,14.709,9.61,24.245
				C805.841,575.076,805.67,575.605,805.479,576.127z"/>
			<path d="M841.604,506.53L841.604,506.53c-2.673-2.102-4.603-3.615-3.688-6.425c0.831-2.562,2.953-3.312,6.308-2.224
				c3.562,1.154,4.014,3.033,5.269,3.441c1.363,0.439,2.59-0.763,2.915-1.765c0.673-2.071-2.375-4.195-5.312-5.447l0.606-1.869
				c0.421-1.299-0.294-2.7-1.593-3.121c-1.304-0.422-2.701,0.292-3.122,1.592l-0.704,2.167c-4.45-0.356-7.646,1.759-9.021,5.987
				c-1.879,5.79,1.865,8.772,4.871,11.173c2.946,2.35,5.273,4.204,4.031,8.035c-1.026,3.161-3.304,4.196-6.769,3.073
				c-5.069-1.646-4.01-5.084-5.94-5.715c-1.197-0.389-2.599,0.642-2.957,1.75c-0.636,1.961,1.448,5.482,5.456,7.522l-0.586,1.806
				c-0.421,1.303,0.294,2.7,1.594,3.123c1.299,0.422,2.699-0.293,3.122-1.594l0.604-1.854c4.821,0.617,8.506-1.875,10.13-6.883
				C849.062,512.388,844.926,509.141,841.604,506.53z"/>
			<path d="M900.788,630.316c-2.149,0-4.284-0.341-6.346-1.009l-47.262-15.33c-5.227-1.694-9.482-5.331-11.985-10.239
				c-2.503-4.907-2.948-10.488-1.253-15.715l0.933-2.872l-5.467-1.774l-0.382,1.012c-0.721,1.906-2.121,3.474-3.947,4.411
				l-1.001,0.516l0.508,1.005c0.994,1.969,1.169,4.201,0.492,6.286c-1.111,3.426-4.28,5.727-7.886,5.727
				c-0.862,0-1.721-0.136-2.548-0.404c-0.013-0.005-44.168-14.311-44.168-14.311c-5.836-1.635-10.656-5.414-13.618-10.657
				c-3.989-7.058-3.93-15.455,0.159-22.464c4.126-7.071,11.341-11.293,19.3-11.293c1.632,0,3.296,0.181,4.945,0.536l1.168,0.252
				l0.222-1.382c0.044-0.312,0.108-0.781,0.328-1.457c0.676-2.084,2.128-3.789,4.086-4.799l1-0.517l-0.509-1.004
				c-0.992-1.965-1.167-4.197-0.489-6.284c1.108-3.426,4.275-5.728,7.88-5.728c0.864,0,1.723,0.137,2.552,0.406l4.352,1.411
				l27.507-84.793c2.039-6.279,7.851-10.501,14.461-10.501c1.582,0,3.152,0.25,4.672,0.741l57.47,18.646
				c2.153,0.699,4.266,1.961,5.792,3.46c2.211,2.121,2.952,3.752,4.742,7.692c0.766,1.687,1.718,3.783,3.043,6.479l5.193,10.776
				c1.702,3.541,1.976,7.546,0.767,11.276l-8.124,25.042l13.258,4.298c10.806,3.506,16.744,15.147,13.24,25.953l-23.473,72.356
				C917.635,624.591,909.753,630.316,900.788,630.316C900.787,630.316,900.788,630.316,900.788,630.316z M877.027,504.385
				c-7.676,0-14.424,4.901-16.79,12.197l-23.475,72.357c-1.452,4.475-1.071,9.253,1.072,13.455c2.144,4.2,5.787,7.313,10.262,8.765
				l47.262,15.332c1.764,0.573,3.591,0.862,5.432,0.862c7.675,0,14.422-4.902,16.788-12.199l23.473-72.354
				c1.453-4.475,1.073-9.254-1.068-13.455c-2.143-4.201-5.788-7.313-10.265-8.766l-47.26-15.332
				C880.695,504.675,878.868,504.385,877.027,504.385z M801.856,584.512c-2.19,2.253-4.777,3.999-7.688,5.189l-2.864,1.173
				l24.362,7.903c0.496,0.161,1.011,0.242,1.529,0.242c2.162,0,4.062-1.381,4.729-3.435c0.41-1.264,0.302-2.611-0.304-3.796
				c-0.604-1.184-1.631-2.059-2.891-2.466l-16.386-5.317L801.856,584.512z M785.75,549.152c-9.009,0-16.666,5.779-19.053,14.383
				c-1.408,5.059-0.76,10.359,1.824,14.927c2.581,4.562,6.787,7.848,11.844,9.251c1.791,0.501,3.609,0.755,5.404,0.755
				c6.828,0,13.274-3.778,16.825-9.864c3.54-6.067,3.587-13.35,0.124-19.477C799.188,552.881,792.846,549.152,785.75,549.152z
				 M807.798,573.175c-0.481,2.421-1.345,4.726-2.562,6.85l-0.694,1.211l15.216,4.936c0.495,0.162,1.011,0.244,1.53,0.244
				c1.926,0,3.693-1.128,4.503-2.874c0.602-1.245,0.629-2.725,0.066-4.042c-0.564-1.324-1.672-2.339-3.035-2.782l-14.774-4.791
				L807.798,573.175z M843.812,432.661c-5.166,0-9.707,3.299-11.301,8.21l-27.508,84.793l31.108,10.091
				c3.227,1.047,5.401,3.806,5.678,7.199c0.276,3.399-1.426,6.479-4.442,8.034l-1,0.516l0.508,1.004
				c0.992,1.965,1.167,4.196,0.49,6.284c-0.678,2.087-2.129,3.791-4.087,4.8l-1,0.516l0.508,1.005
				c2.041,4.038,0.429,9.011-3.597,11.085l-0.999,0.515l0.506,1.004c0.261,0.517,0.464,1.052,0.605,1.59l0.156,0.601l6.457,2.098
				l21.52-66.33c2.765-8.521,10.646-14.248,19.614-14.248c2.146,0,4.279,0.339,6.34,1.006l30.859,10.013l0.348-1.084
				c3.041-9.507,4.905-15.177,6.142-18.928c2.004-6.087,2.082-6.324,2.181-7.915l0.056-0.877l-20.028-6.5
				c-0.422-0.138-0.765-0.43-0.966-0.824c-0.2-0.394-0.235-0.841-0.099-1.26l7.095-21.866l-61.485-19.945
				C846.284,432.856,845.054,432.661,843.812,432.661z M758.791,574.253c1.262,2.651,3.034,4.928,5.271,6.766l1.714-1.421
				c-0.91-1.66-1.604-3.413-2.063-5.211l-0.167-0.653l-0.654-0.165c-0.128-0.032-0.483-0.15-1.063-0.342l-4.164-1.345
				L758.791,574.253z M806.176,559.388c1.217,2.643,1.901,5.445,2.033,8.335l0.036,0.784l15.6,5.062
				c0.496,0.16,1.011,0.241,1.528,0.241c2.163,0,4.064-1.38,4.731-3.435c0.408-1.262,0.302-2.608-0.304-3.792
				c-0.604-1.185-1.632-2.062-2.894-2.47l-21.817-7.078L806.176,559.388z M757.112,562.943c-0.247,1.616-0.288,3.262-0.122,4.89
				l0.075,0.735l5.812,1.886l0.124-1.42c0.026-0.303,0.021-0.456,0.012-0.633c-0.013-0.28-0.033-0.75,0.396-3.816l0.132-0.942
				l-6.228-2.019L757.112,562.943z M790.861,538.741c-2.163,0-4.064,1.381-4.731,3.435c-0.248,0.765-0.307,1.575-0.17,2.35
				l0.118,0.671l5.599,1.813c0.546,0.153,1.043,0.311,1.533,0.484c1.688,0.595,3.306,1.396,4.819,2.382
				c1.008,0.66,1.956,1.398,2.815,2.191l0.184,0.168l26.904,8.726c0.496,0.161,1.012,0.243,1.53,0.243
				c2.162,0,4.063-1.381,4.73-3.437c0.844-2.608-0.592-5.416-3.195-6.262l-38.608-12.521
				C791.895,538.823,791.38,538.741,790.861,538.741z M761.064,553.727c-0.932,1.188-1.729,2.499-2.373,3.897l-0.533,1.158
				l6.281,2.037l0.407-0.95c0.727-1.689,1.438-2.808,1.78-3.344c0.074-0.116,0.131-0.207,0.168-0.271l0.723-1.219l-5.965-1.936
				L761.064,553.727z M775.336,546.233c-3.422,0.206-6.64,1.275-9.562,3.183l-1.988,1.297l5.981,1.939l0.487-0.45
				c1.646-1.521,3.595-2.84,5.639-3.813L775.336,546.233z M794.951,526.137c-2.164,0-4.065,1.381-4.732,3.437
				c-0.844,2.606,0.589,5.416,3.194,6.261l38.608,12.525c0.496,0.16,1.012,0.241,1.528,0.241c2.164,0,4.066-1.381,4.732-3.437
				c0.409-1.262,0.301-2.609-0.306-3.795c-0.604-1.185-1.631-2.06-2.891-2.466l-38.607-12.524
				C795.983,526.218,795.47,526.137,794.951,526.137z M905.525,474.5l17.778,5.767l-1.843-2.456l0.062-0.248l-0.194-0.136v-0.339
				l-0.34-0.088l-9.68-20.348L905.525,474.5z M901.162,619.433c-0.662,0-1.319-0.104-1.955-0.311l-4.663-1.513
				c-3.333-1.081-5.165-4.675-4.083-8.012l8.562-26.396c0.77-2.369,2.961-3.961,5.453-3.961c0.598,0,1.189,0.095,1.764,0.28
				l5.856,1.897c3.005,0.977,4.656,4.214,3.683,7.221l-8.562,26.395C906.363,617.665,903.931,619.433,901.162,619.433
				L901.162,619.433z M904.474,582.203c-1.202,0-2.261,0.768-2.633,1.91l-8.562,26.397c-0.281,0.86-0.209,1.78,0.203,2.59
				c0.411,0.81,1.112,1.408,1.975,1.688l4.663,1.513c0.34,0.111,0.692,0.168,1.051,0.168c1.474,0,2.771-0.943,3.229-2.349
				l8.561-26.398c0.229-0.705,0.168-1.456-0.17-2.113c-0.337-0.658-0.909-1.146-1.61-1.37l-5.854-1.899
				C905.049,582.248,904.762,582.203,904.474,582.203z M879.846,612.618c-0.451,0-0.899-0.071-1.334-0.212l-8.501-2.76
				c-1.103-0.357-1.999-1.123-2.526-2.156s-0.621-2.21-0.266-3.312l2.14-6.593c0.124-0.289,0.218-0.616,0.316-0.961
				c0.315-1.093,0.708-2.454,2.229-3.347c0.67-0.394,1.433-0.602,2.204-0.602c0.453,0,0.902,0.071,1.338,0.213l8.502,2.758
				c1.07,0.349,1.953,1.089,2.486,2.087c0.562,1.048,0.67,2.245,0.304,3.378l-2.759,8.501
				C883.395,611.41,881.734,612.618,879.846,612.618L879.846,612.618z M874.106,595.645c-0.604,0-1.131,0.384-1.312,0.953
				l-2.757,8.498c-0.15,0.456-0.048,0.812,0.064,1.031c0.295,0.571,0.676,0.688,2.505,1.253c1.256,0.389,3.356,1.037,6.805,2.203
				l0.177,0.06l0.284,0.021c1.019,0,1.226-0.671,1.843-2.662c0.389-1.255,1.038-3.354,2.196-6.787
				c0.117-0.356,0.089-0.729-0.077-1.058c-0.167-0.328-0.451-0.571-0.8-0.687l-8.674-2.812L874.106,595.645z M857.499,605.367
				c-0.453,0-0.903-0.071-1.338-0.213l-8.5-2.758c-1.102-0.357-1.998-1.123-2.526-2.156c-0.527-1.034-0.622-2.21-0.266-3.312
				l2.14-6.593c0.124-0.29,0.218-0.617,0.316-0.962c0.313-1.093,0.705-2.454,2.229-3.345c0.672-0.396,1.435-0.603,2.203-0.603
				c0.453,0,0.902,0.071,1.337,0.213l8.503,2.759c1.179,0.382,2.141,1.255,2.642,2.396c0.703,1.613,0.221,2.952-0.168,4.028
				c-0.12,0.333-0.234,0.649-0.304,0.952l-2.137,6.59C861.048,604.16,859.388,605.367,857.499,605.367L857.499,605.367z
				 M851.726,588.377c-0.991,0-0.991,0-2.44,4.518c-0.391,1.219-0.906,2.827-1.596,4.95c-0.15,0.459-0.048,0.815,0.065,1.033
				c0.295,0.57,0.632,0.675,2.505,1.253c1.255,0.389,3.356,1.037,6.801,2.202l0.178,0.06l0.201,0.003
				c0.888,0,1.273-0.001,3.298-6.803h0.021l0.227-0.839c0.14-0.519,0.281-0.907,0.389-1.2c0.203-0.558,0.396-1.084,0.121-1.646
				c-0.158-0.326-0.446-0.571-0.812-0.689l-8.502-2.757C852.116,588.438,851.948,588.377,851.726,588.377z M886.705,591.482
				c-0.452,0-0.901-0.072-1.335-0.214l-8.503-2.758c-1.102-0.356-1.998-1.123-2.525-2.157c-0.526-1.032-0.621-2.209-0.265-3.311
				l2.757-8.499c0.584-1.797,2.244-3.004,4.133-3.004c0.452,0,0.901,0.071,1.336,0.212l8.502,2.758
				c0.517,0.169,0.989,0.43,1.404,0.771c1.371,1.126,1.926,3.014,1.383,4.698l-2.757,8.496
				C890.253,590.274,888.593,591.482,886.705,591.482L886.705,591.482z M880.964,574.507c-0.604,0-1.134,0.386-1.313,0.959
				l-2.756,8.491c-0.113,0.352-0.084,0.726,0.086,1.055c0.168,0.328,0.452,0.57,0.804,0.684l8.668,2.812l0.253,0.013
				c0.603,0,1.129-0.387,1.312-0.961l2.758-8.491c0.112-0.351,0.085-0.723-0.08-1.048c-0.167-0.329-0.452-0.573-0.805-0.688
				l-8.67-2.812L880.964,574.507z M864.355,584.232c-0.453,0-0.903-0.071-1.34-0.214l-8.501-2.758
				c-2.274-0.737-3.527-3.19-2.792-5.468l2.76-8.497c0.582-1.797,2.241-3.004,4.133-3.004c0.452,0,0.9,0.071,1.335,0.212l8.5,2.759
				c1.103,0.357,2,1.123,2.526,2.157c0.528,1.034,0.622,2.21,0.266,3.312l-2.758,8.497
				C867.902,583.026,866.243,584.232,864.355,584.232L864.355,584.232z M858.612,567.259c-0.6,0-1.126,0.381-1.312,0.948l-2.757,8.5
				c-0.231,0.729,0.168,1.506,0.887,1.738l8.669,2.812l0.255,0.012c0.6,0,1.127-0.382,1.312-0.949l2.757-8.501
				c0.234-0.721-0.16-1.498-0.88-1.734l-8.677-2.814L858.612,567.259z M916.529,576.595c-0.452,0-0.901-0.07-1.336-0.213
				l-8.498-2.757c-1.103-0.357-1.998-1.123-2.526-2.156c-0.527-1.034-0.621-2.211-0.264-3.312l2.758-8.498
				c0.582-1.796,2.241-3.002,4.132-3.002c0.452,0,0.902,0.07,1.337,0.212l8.497,2.758c2.276,0.738,3.527,3.191,2.79,5.468
				l-2.757,8.499C920.079,575.388,918.419,576.595,916.529,576.595L916.529,576.595z M910.766,559.609
				c-1.021,0-1.227,0.668-1.839,2.649c-0.388,1.255-1.036,3.355-2.198,6.796c-0.118,0.354-0.092,0.729,0.074,1.061
				c0.165,0.325,0.457,0.577,0.805,0.688l8.67,2.814l0.256,0.013c0.598,0,1.124-0.383,1.31-0.951l2.755-8.501
				c0.234-0.717-0.157-1.494-0.874-1.733l-8.508-2.76C911.115,559.652,910.96,559.609,910.766,559.609z M893.896,569.257
				c-0.443,0-0.888-0.071-1.318-0.211l-8.503-2.758c-2.275-0.738-3.527-3.192-2.788-5.47l2.756-8.498
				c0.581-1.796,2.242-3.002,4.133-3.002c0.452,0,0.901,0.07,1.336,0.213l8.502,2.757c2.274,0.739,3.524,3.192,2.787,5.47
				l-2.756,8.497c-0.547,1.686-2.103,2.888-3.873,2.993C894.075,569.254,893.986,569.257,893.896,569.257z M888.135,552.293
				c-0.605,0-1.082,0.354-1.271,0.942l-2.758,8.495c-0.115,0.344-0.088,0.72,0.082,1.051c0.166,0.326,0.461,0.577,0.809,0.688
				l8.665,2.813l0.254,0.012c0.602,0,1.128-0.386,1.311-0.959l2.759-8.492c0.23-0.727-0.165-1.502-0.883-1.734
				c-3.47-1.081-5.551-1.789-6.795-2.211C888.908,552.421,888.533,552.293,888.135,552.293z M871.562,562.008
				c-0.452,0-0.902-0.07-1.339-0.213l-8.5-2.757c-2.274-0.738-3.526-3.192-2.789-5.47l2.758-8.498
				c0.581-1.796,2.241-3.002,4.132-3.002c0.452,0,0.9,0.07,1.336,0.212l8.5,2.759c1.103,0.356,2,1.123,2.527,2.157
				c0.527,1.032,0.621,2.21,0.265,3.312l-2.757,8.498C875.113,560.802,873.453,562.008,871.562,562.008L871.562,562.008z
				 M865.824,545.032c-0.605,0-1.134,0.387-1.315,0.961l-2.755,8.49c-0.23,0.726,0.166,1.502,0.884,1.734l8.673,2.815l0.256,0.012
				c0.601,0,1.128-0.383,1.312-0.954l2.756-8.497c0.114-0.349,0.085-0.723-0.083-1.052c-0.167-0.328-0.451-0.572-0.801-0.686
				l-8.671-2.813L865.824,545.032z M921.693,552.349c-0.797,0-1.588-0.126-2.354-0.374l-27.158-8.81
				c-0.376-0.122-0.682-0.384-0.86-0.736c-0.18-0.352-0.212-0.754-0.091-1.13c0.199-0.614,0.766-1.025,1.408-1.025
				c0.154,0,0.31,0.024,0.458,0.072l27.154,8.812c0.469,0.151,0.955,0.229,1.443,0.229c2.038,0,3.829-1.303,4.459-3.241l2.952-9.104
				c0.798-2.458-0.554-5.105-3.01-5.902l-46.909-15.217c-0.466-0.151-0.949-0.229-1.438-0.229c-2.04,0-3.834,1.302-4.462,3.237
				l-2.953,9.104c-0.799,2.455,0.551,5.103,3.008,5.901l9.025,2.929c0.774,0.253,1.203,1.091,0.952,1.869
				c-0.198,0.609-0.766,1.021-1.409,1.021l0,0c-0.154,0-0.309-0.024-0.457-0.072l-9.024-2.928c-4.011-1.302-6.216-5.624-4.916-9.634
				l2.954-9.104c1.027-3.164,3.95-5.29,7.272-5.29c0.799,0,1.594,0.126,2.361,0.375l46.909,15.219
				c4.011,1.303,6.216,5.624,4.915,9.634l-2.954,9.104C927.946,550.223,925.021,552.349,921.693,552.349z M899.312,500.837
				c-0.154,0-0.309-0.023-0.456-0.072l-42.459-13.771c-0.776-0.252-1.203-1.09-0.951-1.867c0.198-0.613,0.766-1.025,1.411-1.025
				c0.153,0,0.307,0.024,0.455,0.072l42.459,13.773c0.376,0.122,0.681,0.382,0.859,0.732c0.182,0.354,0.213,0.755,0.091,1.133
				C900.523,500.425,899.957,500.837,899.312,500.837L899.312,500.837z M903.322,488.488c-0.155,0-0.311-0.024-0.459-0.073
				l-6.251-2.027c-0.376-0.122-0.684-0.383-0.862-0.734c-0.179-0.353-0.211-0.754-0.089-1.131c0.198-0.613,0.765-1.024,1.408-1.024
				c0.153,0,0.309,0.024,0.457,0.072l6.251,2.025c0.376,0.121,0.682,0.383,0.86,0.735c0.181,0.354,0.212,0.755,0.091,1.131
				C904.53,488.077,903.966,488.488,903.322,488.488L903.322,488.488z M846.904,483.835c-0.154,0-0.309-0.024-0.457-0.073
				l-7.905-2.562c-0.777-0.252-1.205-1.09-0.953-1.867c0.198-0.612,0.767-1.025,1.41-1.025c0.153,0,0.307,0.024,0.456,0.073
				l7.906,2.564c0.377,0.122,0.683,0.383,0.861,0.733c0.181,0.354,0.212,0.754,0.09,1.131
				C848.115,483.424,847.549,483.835,846.904,483.835C846.905,483.835,846.905,483.835,846.904,483.835z M887.117,483.232
				c-0.153,0-0.309-0.024-0.456-0.072l-44.115-14.312c-0.776-0.253-1.205-1.091-0.953-1.869c0.198-0.61,0.766-1.022,1.409-1.022
				c0.154,0,0.308,0.024,0.456,0.072l44.117,14.312c0.775,0.253,1.204,1.091,0.953,1.868
				C888.33,482.82,887.763,483.232,887.117,483.232L887.117,483.232z"/>
			<path d="M786.358,563.406c0.2-0.625,0.489-0.729,0.742-0.78c0.788-0.152,2.357,0.235,3.527,1.414
				c0.312,0.312,0.664,0.667,1.215,0.846c2.454,0.796,5.873-3.133,0.338-6.043l0.054-0.156c0.448-1.39-0.313-2.888-1.703-3.339
				c-1.394-0.447-2.891,0.313-3.339,1.703l-0.155,0.479c-2.744,0.095-4.791,1.669-5.686,4.419c-1.375,4.242,1.33,6.397,3.311,7.977
				c1.885,1.503,2.513,2.096,2.039,3.559c-0.296,0.91-0.815,1.68-2.604,1.101c-2.601-0.844-1.622-2.798-3.565-3.43
				c-1.376-0.446-2.849,0.58-3.24,1.798c-0.56,1.723,0.703,3.938,2.986,5.414l-0.062,0.188c-0.451,1.392,0.313,2.89,1.703,3.337
				c1.391,0.451,2.888-0.312,3.339-1.7l0.082-0.257c2.987,0.012,5.33-1.807,6.362-4.989
				C794.157,567.381,785.566,565.849,786.358,563.406z"/>
		</g>
	</g>
	<g>
		<defs>
			<rect id="SVGID_9_" width="1400" height="600"/>
		</defs>
		<clipPath id="SVGID_10_">
			<use xlink:href="#SVGID_9_"  overflow="visible"/>
		</clipPath>
		<g clip-path="url(#SVGID_10_)">
			<g>
				<path fill="#ED664C" d="M1114.662,428.429l1.862,12.6c0.639,4.317-10.274,9.557-24.305,11.631
					c-14.026,2.073-25.859,0.292-26.501-4.028l-0.229-1.405l-1.638-9.979l0.021-0.003c2.55,3.41,13.429,4.706,26.023,2.844
					c14.025-2.073,25.176-7.3,24.535-11.62L1114.662,428.429L1114.662,428.429z"/>
				<path fill="#ED664C" d="M1112.83,416.038l1.832,12.391l-0.229,0.033c0.642,4.32-10.483,9.543-24.534,11.62
					c-12.598,1.862-23.477,0.566-26.023-2.844l0,0l-0.438-2.654l-1.713-10.458c1.838,3.771,13.144,5.284,26.329,3.334
					c13.823-2.043,24.94-7.148,24.63-11.447L1112.83,416.038z"/>
			</g>
			<path fill="#FDC75B" d="M1061.708,424.152c-0.127-0.236-0.188-0.482-0.228-0.756c-0.041-0.274-0.034-0.557,0.019-0.817
				c0.719-4.104,10.927-8.747,23.927-10.717c0.09-0.016,0.204-0.029,0.294-0.043c14.029-2.074,26.302-0.312,26.94,4.012
				c0.01,0.067,0.02,0.136,0.005,0.185c0.287,4.306-10.808,9.404-24.633,11.448C1074.85,429.436,1063.547,427.946,1061.708,424.152z
				"/>
			<g>
				<path fill="#ED664C" d="M1085.383,411.569l0.047,0.314c-13,1.972-23.229,6.616-23.927,10.717l-1.173-0.385
					c-2.567,0.38-5.087,0.636-7.461,0.754l-0.575,0.201c-1.954-5.354-5.625-9.764-10.288-12.698l0.171-0.256
					c4.527,0.445,10.225,0.3,16.291-0.597c14.029-2.074,25.267-7.336,24.625-11.656l0.273-0.041L1085.383,411.569L1085.383,411.569z
					"/>
				<path fill="#ED664C" d="M1081.508,385.354l1.858,12.572l-0.273,0.041c0.642,4.32-10.596,9.582-24.625,11.656
					c-6.066,0.896-11.761,1.062-16.291,0.597l-0.171,0.256c-2.868-1.806-6.119-3.046-9.544-3.584l0.034-0.235l-2.3-13.204
					c1.469,3.965,12.973,5.562,26.432,3.569c14.029-2.07,25.245-7.308,24.627-11.631L1081.508,385.354z"/>
			</g>
			<path fill="#FDC75B" d="M1081.229,385.348L1081.229,385.348c0.617,4.348-10.597,9.582-24.625,11.656
				c-13.459,1.989-24.938,0.388-26.435-3.572c-0.071-0.177-0.118-0.332-0.146-0.515c-0.641-4.319,10.213-9.502,24.238-11.575
				C1068.316,379.266,1080.592,381.051,1081.229,385.348z"/>
			<g>
				<path fill="#ED664C" d="M1063.879,437.261l1.638,9.98l-1.247,0.207c-5.979,0.884-11.345,1.05-15.801,0.616l-0.365-0.271
					c2.814-3.437,4.709-7.596,5.416-12.093l0.612-0.091c2.564-0.104,5.286-0.39,8.082-0.803l1.229-0.201L1063.879,437.261z"/>
				<path fill="#ED664C" d="M1061.708,424.152l1.709,10.458l-1.225,0.203c-2.796,0.411-5.522,0.679-8.084,0.801l-0.612,0.09
					c0.381-2.449,0.4-4.984,0.019-7.576c-0.256-1.729-0.688-3.383-1.243-4.95l0.573-0.201c2.376-0.115,4.896-0.371,7.463-0.754
					l1.173,0.388c-0.051,0.282-0.061,0.541-0.02,0.812C1061.521,423.67,1061.581,423.916,1061.708,424.152z"/>
			</g>
			<path fill="#FDC75B" d="M1052.271,423.178c0.557,1.567,0.985,3.225,1.241,4.95c0.386,2.592,0.362,5.127-0.019,7.576
				c-0.707,4.498-2.604,8.656-5.415,12.093c-3.839,4.681-9.36,8.028-15.819,8.983c-13.775,2.037-26.595-7.499-28.629-21.255
				c-2.033-13.759,7.479-26.596,21.255-28.633c2.57-0.38,5.128-0.359,7.558,0.021c3.425,0.54,6.675,1.778,9.545,3.584
				C1046.643,413.392,1050.314,417.798,1052.271,423.178z"/>
			<path d="M1028.526,458.198c-12.969,0-24.178-9.684-26.074-22.522c-2.128-14.387,7.847-27.822,22.233-29.951
				c1.285-0.189,2.599-0.286,3.9-0.286c0.358,0,0.717,0.008,1.075,0.021l1.399,0.056l-2.033-11.803l-0.041-0.104
				c-0.031-0.08-0.076-0.231-0.116-0.496c-0.498-3.375,3.683-6.137,7.278-7.857c4.656-2.229,11.028-4.02,17.943-5.041
				c3.973-0.589,7.832-0.888,11.473-0.888c2.687,0,5.168,0.166,7.375,0.493c5.026,0.738,8.189,2.248,9.147,4.367l0.088,0.193
				l0.152,0.148c0.202,0.199,0.312,0.404,0.35,0.65l3.749,25.358l1.102-0.139c3.26-0.412,6.438-0.62,9.445-0.62
				c2.683,0,5.181,0.166,7.426,0.494c5.449,0.809,8.562,2.452,9.254,4.888l0.04,0.141l0.073,0.127
				c0.07,0.118,0.117,0.267,0.146,0.45l3.692,24.988c0.529,3.578-4.328,6.472-7.271,7.877c-4.719,2.269-11.097,4.075-17.962,5.09
				c-3.854,0.57-7.771,0.871-11.321,0.871c-0.001,0-0.001,0-0.001,0c-9.108,0-15.214-1.955-16.331-5.229l-0.303-0.886l-0.927,0.129
				c-3.497,0.486-6.891,0.732-10.083,0.732c-1.555,0-3.062-0.061-4.479-0.177l-0.553-0.047l-0.375,0.407
				c-4.107,4.459-9.646,7.398-15.597,8.277C1031.119,458.103,1029.814,458.198,1028.526,458.198z M1028.626,407.763
				c-1.198,0-2.4,0.088-3.573,0.263c-6.347,0.938-11.952,4.299-15.784,9.46c-3.831,5.161-5.425,11.5-4.485,17.848
				c1.73,11.707,11.951,20.534,23.771,20.534c1.176,0,2.364-0.087,3.534-0.26c5.917-0.875,11.277-3.92,15.094-8.57
				c2.721-3.323,4.507-7.312,5.168-11.539c0.38-2.356,0.391-4.788,0.031-7.222c-0.231-1.562-0.63-3.148-1.183-4.718
				c-1.808-4.958-5.29-9.249-9.812-12.096c-2.813-1.768-5.88-2.922-9.114-3.431C1031.062,407.853,1029.838,407.763,1028.626,407.763
				z M1066.927,448.606c0.184,0.681,1.248,2.403,7.216,3.312c2.055,0.308,4.377,0.464,6.905,0.464c3.469,0,7.171-0.287,11.006-0.854
				c6.646-0.984,12.789-2.721,17.3-4.888c4.562-2.195,6.095-4.21,6.007-5.361l-1.309-8.857l-1.523,1.146
				c-1.264,0.949-2.688,1.802-4.356,2.604c-4.744,2.24-11.167,4.037-18.078,5.057c-3.832,0.566-7.744,0.866-11.313,0.866
				c-4.648,0-8.613-0.506-11.468-1.463l-1.778-0.597l1.379,8.503c0.004,0.021,0.017,0.071,0.017,0.071L1066.927,448.606z
				 M1061.396,436.109c-1.897,0.26-3.871,0.454-6.034,0.593l-0.848,0.055l-0.187,0.828c-0.616,2.738-1.673,5.368-3.144,7.816
				l-1.006,1.677l1.955,0.04c0.407,0.008,0.818,0.013,1.234,0.013c3.098,0,6.345-0.229,9.647-0.678l1.154-0.156l-1.439-8.84
				l-0.23-1.5L1061.396,436.109z M1064.569,434.438l0.401,2.352l0.306,0.266c1.927,1.683,7.17,2.728,13.683,2.728
				c3.395,0,7.01-0.275,10.748-0.82c6.694-0.989,12.886-2.714,17.438-4.854c4.754-2.26,6.266-4.29,6.098-5.438
				c0-0.053,0.018-0.127,0.029-0.199c0.032-0.221,0.074-0.494,0.029-0.805l-1.143-7.742l-1.526,1.157
				c-1.19,0.902-2.67,1.758-4.521,2.617c-4.735,2.196-11.1,3.963-17.921,4.971c-3.802,0.562-7.686,0.858-11.229,0.858
				c-2.346,0-4.538-0.126-6.516-0.375c-2.192-0.307-3.91-0.686-5.236-1.158l-1.812-0.646L1064.569,434.438z M1059.267,423.53
				c-1.667,0.216-2.933,0.354-4.104,0.446l-1.337,0.105l0.327,1.301c0.231,0.925,0.39,1.75,0.481,2.524
				c0.254,1.705,0.34,3.445,0.262,5.21l-0.059,1.272l1.272-0.092c1.551-0.112,3.167-0.28,4.802-0.499l1.159-0.155l-1.511-9.126
				l-0.035-0.104l-0.136-1.031L1059.267,423.53z M1097.263,412.181c-3.526,0-7.446,0.305-11.335,0.878l-0.297,0.044
				c-6.182,0.917-11.967,2.488-16.29,4.426c-3.889,1.749-6.39,3.699-6.688,5.219l-0.059,0.289l0.282,0.863l0.144,0.171
				c0.495,0.59,2.239,2.039,7.741,2.751c1.877,0.233,3.952,0.354,6.172,0.354c3.432,0,7.212-0.291,10.936-0.841
				c6.634-0.981,12.776-2.682,17.299-4.789c4.829-2.246,6.448-4.287,6.354-5.449l-0.012-0.137l-0.047-0.151
				c-0.174-0.518-1.219-2.276-7.378-3.176C1102.079,412.332,1099.783,412.181,1097.263,412.181z M1081.273,403.062
				c-1.231,0.937-2.736,1.822-4.475,2.635c-4.775,2.25-11.225,4.053-18.162,5.077c-3.359,0.495-6.817,0.799-10.276,0.896
				l-2.584,0.074l1.805,1.852c2.108,2.162,3.87,4.765,5.096,7.523l0.325,0.731l0.798-0.062c2.208-0.171,4.351-0.408,6.365-0.706
				c0.067-0.009,0.155-0.021,0.244-0.037l0.472-0.086l0.268-0.398c2.6-3.885,10.991-7.509,21.901-9.457l1.083-0.193l-1.332-9.011
				L1081.273,403.062z M1033.534,405.881l0.743,0.164c2.508,0.553,4.988,1.507,7.374,2.835l0.157,0.088l0.252,0.05l0.175,0.016
				c1.629,0.169,3.365,0.253,5.204,0.253c3.394,0,7.146-0.29,10.853-0.837c6.643-0.982,13.021-2.766,17.501-4.891
				c4.799-2.267,6.331-4.299,6.165-5.443c-0.041-0.289-0.01-0.398,0.021-0.461l0.164-0.322l-1.19-8.074l-1.527,1.16
				c-1.229,0.934-2.741,1.821-4.496,2.641c-4.748,2.243-11.188,4.044-18.139,5.071c-3.929,0.581-7.733,0.876-11.308,0.876
				c-2.438,0-4.702-0.141-6.729-0.417c-1.903-0.246-3.571-0.618-4.967-1.107l-1.822-0.641L1033.534,405.881z M1031.792,393.789
				c0.796,0.786,2.705,1.902,7.268,2.52c1.959,0.27,4.154,0.406,6.521,0.406c3.438,0,7.092-0.283,10.854-0.84
				c6.551-0.968,12.919-2.749,17.476-4.886c4.809-2.243,6.34-4.285,6.169-5.447c-0.169-1.147-2.217-2.651-7.455-3.435
				c-2.083-0.312-4.456-0.469-7.055-0.469c-3.506,0-7.348,0.295-11.112,0.851c-6.614,0.979-12.749,2.704-17.274,4.858
				c-4.562,2.178-6.1,4.174-6.017,5.316l0.086,1.191L1031.792,393.789z"/>
			<path d="M1038.559,441.375c-4.026,2.29-9.03,1.916-12.763-0.831c-0.704-0.521-1.331-0.989-1.92-1.83l11.688-1.728
				c1.25-0.188,2.121-1.36,1.938-2.61c-0.183-1.25-1.359-2.123-2.609-1.938l-13.322,1.97c-0.215-0.665-0.371-1.571-0.438-2.492
				l14.599-2.157c1.252-0.186,2.123-1.355,1.938-2.605c-0.185-1.25-1.357-2.123-2.609-1.938l-13.256,1.959
				c0.393-0.982,0.93-2.063,1.581-2.976c2.752-3.704,7.463-5.472,11.983-4.443c1.249,0.28,2.458-0.502,2.74-1.729
				c0.278-1.249-0.504-2.458-1.729-2.741c-6.296-1.415-12.837,1.016-16.692,6.208c-1.435,1.932-2.421,4.054-2.882,6.44l-3.206,0.477
				c-1.25,0.186-2.121,1.358-1.936,2.608c0.185,1.25,1.357,2.122,2.607,1.938l2.271-0.337c0.09,0.917,0.224,1.825,0.415,2.494
				l-2.319,0.343c-1.25,0.185-2.12,1.359-1.936,2.609c0.185,1.251,1.355,2.122,2.605,1.938l3.479-0.515
				c1.098,1.929,2.562,3.501,4.284,4.778c3.55,2.638,7.91,3.688,12.115,3.063c1.957-0.289,3.858-0.919,5.641-1.926
				c1.116-0.629,1.489-2.032,0.861-3.125C1041.079,441.143,1039.676,440.769,1038.559,441.375z"/>
		</g>
	</g>
	<g>
		<defs>
			<rect id="SVGID_11_" width="1400" height="600"/>
		</defs>
		<clipPath id="SVGID_12_">
			<use xlink:href="#SVGID_11_"  overflow="visible"/>
		</clipPath>
		<g clip-path="url(#SVGID_12_)">
			<path fill="#FF7B79" d="M1296.635,606.186l-127.443,38.924l-38.293-152.229l112.448-34.343L1296.635,606.186z"/>
			<path fill="#AB3837" d="M1326.621,597.027l-29.986,9.155l-53.288-147.646l29.987-9.157L1326.621,597.027z"/>
			<path fill="#FDC75B" d="M1386.596,578.711l-29.983,9.158l-2.319-5.915l-0.002-0.005l-34.939-89.249l29.986-9.158l34.341,87.706
				l0.001,0.004L1386.596,578.711z"/>
			<path fill="#FFDA8F" d="M1192.733,547.76l-22.49,6.869l-9.158-29.988l8.956-10.931l13.534,4.062L1192.733,547.76z"/>
			<path fill="#FFDA8F" d="M1356.609,587.869l-97.459,29.764l-22.27-99.748l82.464-25.185L1356.609,587.869z"/>
			<path d="M1169.186,646.763c-0.757,0-1.413-0.514-1.599-1.249l-38.293-152.229c-0.216-0.854,0.276-1.726,1.119-1.981l28.408-8.677
				l-6.39-20.912c-1.102-3.6-1.576-7.331-1.41-11.094c0.776-17.69,15.244-31.547,32.938-31.547c0.488,0,0.979,0.011,1.473,0.032
				l0.804,0.034l0.646-0.478c3.026-2.238,6.388-3.931,9.991-5.03c3.144-0.959,6.387-1.443,9.639-1.443
				c14.604,0,27.281,9.395,31.546,23.376l6.39,20.913l28.404-8.678c0.156-0.048,0.319-0.071,0.482-0.071
				c0.694,0,1.318,0.438,1.554,1.09l18.119,50.197l55.847-17.056c0.157-0.049,0.32-0.073,0.483-0.073
				c0.674,0,1.292,0.423,1.538,1.052l37.3,95.292c0.129,0.422,0.086,0.867-0.121,1.258c-0.208,0.39-0.554,0.675-0.977,0.804
				l-217.415,66.399l-0.123,0.032C1169.457,646.746,1169.32,646.763,1169.186,646.763z M1132.88,494.001l37.487,149.019
				l86.838-26.521l-21.934-98.253c-0.186-0.837,0.312-1.69,1.134-1.942l23.452-7.162l-17.527-48.564l-19.407,5.927l4.097,13.414
				c0.267,0.872-0.228,1.799-1.101,2.066c-0.155,0.048-0.317,0.071-0.479,0.071c-0.721,0-1.37-0.481-1.582-1.174l-4.096-13.411
				l-56.816,17.352l8.417,27.561l12.688,3.811c0.529,0.158,0.942,0.569,1.105,1.102l9.155,29.984
				c0.266,0.871-0.228,1.796-1.098,2.062l-22.49,6.869c-0.155,0.048-0.318,0.072-0.48,0.072c-0.72,0-1.37-0.481-1.58-1.17
				l-9.158-29.987c-0.161-0.529-0.049-1.1,0.301-1.526l8.396-10.252l-8.415-27.561L1132.88,494.001z M1238.829,519.018
				l21.544,96.517l94.048-28.722l-36.054-92.086L1238.829,519.018z M1359.077,585.389l24.085-7.355l-17.559-14.387L1359.077,585.389
				z M1321.536,493.76l34.867,89.051l6.581-21.923l-29.59-70.751L1321.536,493.76z M1336.57,489.17l29.528,70.612l16.654,13.646
				l-34.397-87.858L1336.57,489.17z M1162.922,525.003l8.415,27.563l19.332-5.903l-8.415-27.563l-11.633-3.489L1162.922,525.003z
				 M1245.489,459.611l17.525,48.563l12.282-3.75l-17.963-48.432L1245.489,459.611z M1260.497,455.027l17.963,48.431l11.383-3.475
				l-17.532-48.564L1260.497,455.027z M1176.717,423.28c-0.465,0.118-0.929,0.245-1.394,0.388
				c-15.64,4.795-24.49,21.429-19.73,37.079l6.392,20.914l19.328-5.903l-6.388-20.912c-2.922-9.568-1.381-19.811,4.229-28.097
				l3.345-4.94L1176.717,423.28z M1186.479,423.264c-8.418,7.689-11.714,19.707-8.396,30.615l6.391,20.914l34.322-10.482
				l-6.387-20.911c-3.341-10.902-12.788-19.028-24.068-20.704l-1.065-0.158L1186.479,423.264z M1206.48,415.503
				c-2.926,0-5.84,0.437-8.662,1.294c-0.468,0.144-0.926,0.298-1.374,0.46l-5.589,2.018l5.511,2.22
				c9.282,3.74,16.282,11.373,19.204,20.94l6.386,20.91l19.333-5.902l-6.391-20.91
				C1231.043,423.953,1219.623,415.503,1206.48,415.503z M1290.4,576.245c-7.669,0-14.333-4.933-16.584-12.271l-9.157-29.982
				c-0.265-0.871,0.227-1.798,1.096-2.063c0.158-0.048,0.322-0.071,0.484-0.071c0.721,0,1.371,0.479,1.581,1.17l9.156,29.985
				c1.822,5.941,7.216,9.932,13.421,9.932c1.382,0,2.758-0.206,4.09-0.61l7.499-2.29c7.389-2.268,11.566-10.122,9.316-17.509
				l-9.155-29.99c-0.267-0.871,0.227-1.797,1.099-2.063c0.157-0.049,0.32-0.072,0.482-0.072c0.729,0,1.359,0.47,1.571,1.169
				l9.159,29.992c2.778,9.13-2.387,18.836-11.514,21.635l-7.494,2.288C1293.806,575.991,1292.105,576.245,1290.4,576.245
				L1290.4,576.245z"/>
		</g>
	</g>
	<g>
		<defs>
			<rect id="SVGID_13_" width="1400" height="600"/>
		</defs>
		<clipPath id="SVGID_14_">
			<use xlink:href="#SVGID_13_"  overflow="visible"/>
		</clipPath>
		<g clip-path="url(#SVGID_14_)">
			<path fill="#FF7B79" d="M177.491,338.979l121.745,98.438c4.803,3.883,5.548,10.924,1.665,15.727L170.822,614.021
				c-3.883,4.803-10.925,5.549-15.728,1.662L33.349,517.248c-4.802-3.883-5.547-10.925-1.665-15.729l130.079-160.876
				C165.646,335.84,172.688,335.096,177.491,338.979z"/>
			<path fill="#FFFBE4" d="M255.027,425.639l26.693,21.583L161.016,596.505L50.865,507.442l120.704-149.284l26.692,21.583"/>
			<path fill="#FF6977" d="M197.732,398.489l39.072,31.592c4.253,3.438,10.487,2.777,13.925-1.475l14.868-18.392l-54.471-44.043
				l-14.868,18.391C192.821,388.814,193.48,395.052,197.732,398.489z"/>
			<path fill="#FFDA8F" d="M197.732,398.489l39.072,31.592c4.253,3.438,10.487,2.777,13.925-1.475l14.868-18.392l-54.471-44.043
				l-14.868,18.391C192.821,388.814,193.48,395.052,197.732,398.489z"/>
			<path fill="#FFDA8F" d="M214.845,519.321l76.781-8.128c6.768-0.719,12.835,4.188,13.552,10.958
				c0.716,6.768-4.189,12.836-10.958,13.552l-76.781,8.128l-33.223-8.877L214.845,519.321z"/>
			<path fill="#FFFFFF" d="M217.439,543.831l-2.594-24.51l-30.629,15.633L217.439,543.831z"/>
			<path fill="#FF6977" d="M285.793,536.596l8.427-0.893c6.768-0.716,11.674-6.784,10.958-13.552
				c-0.717-6.771-6.784-11.677-13.552-10.958l-8.426,0.891L285.793,536.596z"/>
			<path fill="#FFDA8F" d="M165.524,401.208l23.189,18.75l-18.751,23.19l-23.189-18.75L165.524,401.208z"/>
			<path fill="#FFDA8F" d="M133.297,441.065l23.189,18.75l-18.75,23.188l-23.189-18.75L133.297,441.065z"/>
			<path fill="#FF7B79" d="M101.07,480.923l23.189,18.75l-18.75,23.189l-23.189-18.75L101.07,480.923z"/>
			<path d="M105.951,553.798c-0.417,0-0.837-0.146-1.153-0.403c-0.372-0.3-0.621-0.76-0.671-1.23
				c-0.049-0.468,0.099-0.969,0.396-1.337c0.297-0.367,0.757-0.617,1.229-0.668c0.059-0.006,0.119-0.009,0.18-0.009
				c0.417,0,0.84,0.146,1.158,0.404c0.367,0.296,0.616,0.755,0.666,1.228c0.05,0.472-0.098,0.974-0.396,1.343
				c-0.295,0.364-0.755,0.614-1.228,0.665C106.072,553.795,106.012,553.798,105.951,553.798z"/>
			<path d="M162.113,619.991c-3.006,0-5.83-0.998-8.166-2.888L32.202,518.667c-5.578-4.51-6.446-12.716-1.937-18.294l130.079-160.88
				c2.477-3.063,6.168-4.82,10.128-4.82c3.006,0,5.83,0.998,8.166,2.888l121.746,98.438c2.696,2.181,4.383,5.286,4.75,8.746
				c0.367,3.46-0.633,6.851-2.812,9.547l-47.692,58.985l36.806-3.898c0.497-0.053,1.001-0.079,1.498-0.079
				c7.251,0,13.296,5.443,14.061,12.662c0.82,7.756-4.824,14.736-12.582,15.561l-64.944,6.875l-57.226,70.774
				C169.764,618.233,166.072,619.991,162.113,619.991L162.113,619.991z M170.465,338.318c-2.845,0-5.5,1.266-7.283,3.472
				L33.104,502.668c-1.57,1.941-2.29,4.381-2.026,6.868c0.263,2.488,1.478,4.723,3.419,6.292l121.745,98.438
				c1.658,1.341,3.745,2.078,5.878,2.078c2.844,0,5.499-1.265,7.283-3.47l54.805-67.781l-6.613,0.554
				c-0.057,0.005-0.113,0.008-0.169,0.008c-0.157,0-0.309-0.021-0.449-0.059l-10.239-2.734l-44.302,54.79
				c-0.348,0.431-0.867,0.677-1.422,0.677c-0.293,0-0.73-0.07-1.145-0.405l-40.582-32.812c-0.38-0.308-0.617-0.742-0.668-1.228
				c-0.051-0.484,0.089-0.961,0.396-1.34c0.348-0.431,0.866-0.677,1.421-0.677c0.293,0,0.73,0.069,1.146,0.406l39.162,31.664
				l42.132-52.108l-19.132-5.108c-0.246-0.065-0.475-0.184-0.679-0.348c-0.376-0.304-0.613-0.74-0.665-1.229
				c-0.079-0.744,0.318-1.476,0.986-1.816l30.627-15.635c0.196-0.1,0.419-0.165,0.648-0.19l8.619-0.912l55.871-69.097
				l-24.997-20.211l-2.003,2.469c-2.237,2.767-5.565,4.352-9.135,4.352c-2.709,0-5.253-0.898-7.358-2.602l-39.074-31.594
				c-5.026-4.066-5.81-11.465-1.745-16.493l2.006-2.474l-25.004-20.215L53.433,507.171l39.162,31.665
				c0.38,0.307,0.617,0.743,0.668,1.229c0.052,0.483-0.089,0.96-0.396,1.34c-0.348,0.431-0.866,0.678-1.422,0.678
				c-0.293,0-0.729-0.07-1.145-0.406l-40.582-32.812c-0.783-0.633-0.905-1.785-0.272-2.568L170.15,357.011
				c0.348-0.43,0.866-0.677,1.421-0.677c0.293,0,0.729,0.07,1.145,0.406l26.42,21.361l9.425-11.654l-32.218-26.051
				C174.686,339.057,172.598,338.318,170.465,338.318z M216.852,520.943l2.21,20.881l64.725-6.852l-2.209-20.882L216.852,520.943z
				 M189.283,534.418l26.061,6.966l-2.035-19.23L189.283,534.418z M292.929,512.95c-0.367,0-0.739,0.02-1.112,0.059l-6.61,0.695
				l2.209,20.879l6.609-0.694c5.758-0.609,9.946-5.789,9.336-11.546C302.796,516.988,298.311,512.95,292.929,512.95z
				 M256.446,424.441l26.42,21.361c0.379,0.308,0.616,0.742,0.667,1.229c0.051,0.485-0.089,0.961-0.396,1.34l-54.724,67.679
				l21.079-2.23l49.987-61.823c1.57-1.94,2.29-4.38,2.026-6.867c-0.263-2.488-1.478-4.723-3.419-6.292l-32.217-26.049
				L256.446,424.441z M197.677,385.711c-1.355,1.676-1.976,3.781-1.749,5.93c0.227,2.147,1.275,4.074,2.951,5.43l39.074,31.594
				c1.429,1.157,3.231,1.794,5.072,1.794c2.455,0,4.747-1.092,6.287-2.997l13.72-16.97l-51.634-41.75L197.677,385.711z"/>
			<path d="M169.963,444.972c-0.293,0-0.731-0.069-1.147-0.406l-23.189-18.75c-0.38-0.308-0.616-0.741-0.667-1.227
				c-0.051-0.485,0.089-0.961,0.396-1.341l18.75-23.188c0.349-0.432,0.867-0.679,1.422-0.679c0.293,0,0.729,0.07,1.145,0.406
				l23.189,18.75c0.38,0.307,0.617,0.743,0.668,1.228c0.051,0.485-0.089,0.96-0.396,1.339l-18.75,23.19
				C171.034,444.726,170.518,444.972,169.963,444.972L169.963,444.972z M149.342,424.127l20.35,16.455l16.456-20.35l-20.352-16.456
				L149.342,424.127z"/>
			<path d="M137.736,484.828c-0.293,0-0.73-0.07-1.146-0.406l-23.189-18.75c-0.782-0.633-0.905-1.784-0.272-2.565l18.75-23.189
				c0.348-0.43,0.866-0.677,1.421-0.677c0.293,0,0.731,0.07,1.146,0.407l23.188,18.749c0.782,0.633,0.904,1.784,0.272,2.566
				l-18.75,23.188C138.808,484.581,138.291,484.828,137.736,484.828L137.736,484.828z M117.113,463.984l20.352,16.454l16.455-20.351
				l-20.35-16.455L117.113,463.984z"/>
			<path d="M105.507,524.688c-0.293,0-0.731-0.07-1.147-0.407l-23.188-18.748c-0.783-0.633-0.904-1.785-0.271-2.568l18.75-23.188
				c0.349-0.433,0.867-0.68,1.422-0.68c0.293,0,0.729,0.07,1.145,0.406l23.189,18.75c0.379,0.308,0.617,0.743,0.668,1.229
				c0.051,0.484-0.089,0.96-0.396,1.338l-18.751,23.19C106.58,524.44,106.062,524.688,105.507,524.688L105.507,524.688z
				 M84.888,503.841l20.35,16.455l16.456-20.35l-20.35-16.457L84.888,503.841z"/>
			<path d="M196.588,463.266c0.136,1.279,0.777,2.386,1.704,3.136s2.14,1.145,3.419,1.01l29.587-3.132
				c2.557-0.271,4.412-2.565,4.143-5.124c-0.271-2.562-2.566-4.415-5.125-4.146l-24.951,2.644l-1.053-9.944
				c-0.271-2.562-2.563-4.414-5.125-4.146c-2.559,0.271-4.414,2.565-4.143,5.123L196.588,463.266z"/>
			<path d="M164.362,503.122c0.13,1.229,0.743,2.354,1.704,3.133c0.96,0.776,2.191,1.144,3.419,1.01l29.586-3.131
				c2.558-0.271,4.413-2.562,4.144-5.124c-0.272-2.559-2.567-4.414-5.125-4.145l-24.951,2.643l-1.053-9.941
				c-0.271-2.562-2.563-4.414-5.125-4.146c-2.557,0.271-4.412,2.563-4.142,5.122L164.362,503.122z"/>
			<path d="M143.387,542.788l1.076,10.158c0.136,1.28,0.777,2.384,1.704,3.134s2.14,1.146,3.419,1.01
				c2.56-0.271,4.415-2.562,4.143-5.124l-1.073-10.158l10.158-1.077c2.559-0.271,4.413-2.562,4.142-5.12
				c-0.27-2.562-2.563-4.414-5.124-4.146l-10.158,1.075l-1.075-10.158c-0.272-2.558-2.563-4.413-5.125-4.144
				c-2.559,0.271-4.413,2.562-4.142,5.123l1.075,10.157l-10.16,1.075c-2.557,0.271-4.412,2.565-4.143,5.124
				c0.136,1.28,0.778,2.385,1.705,3.134c0.927,0.75,2.141,1.146,3.421,1.013L143.387,542.788z"/>
		</g>
	</g>
	<g>
		<defs>
			<rect id="SVGID_15_" width="1400" height="600"/>
		</defs>
		<clipPath id="SVGID_16_">
			<use xlink:href="#SVGID_15_"  overflow="visible"/>
		</clipPath>
		<g clip-path="url(#SVGID_16_)">
			<circle fill="#FF7B79" cx="652.752" cy="601.201" r="31.03"/>
			<circle fill="#FFDA8F" cx="603.875" cy="550.354" r="19.599"/>
			<circle fill="#FFDA8F" cx="691.634" cy="665.441" r="14.699"/>
			<g>
				<circle fill="#FFFBE4" cx="595.709" cy="593.128" r="11.432"/>
				<circle fill="#FFFBE4" cx="715.588" cy="624.502" r="11.433"/>
				<circle fill="#FFFBE4" cx="656.138" cy="538.92" r="11.432"/>
			</g>
			<circle fill="#FFDA8F" cx="597.342" cy="658.8" r="22.865"/>
			<circle fill="#FFDA8F" cx="710.688" cy="565.363" r="24.498"/>
			<path d="M597.342,682.946c-13.314,0-24.146-10.832-24.146-24.147c0-13.314,10.833-24.146,24.146-24.146
				c5.312,0,10.359,1.704,14.593,4.928l1.395,1.061l16.387-16.73l-1.217-1.383c-5.195-5.904-8.056-13.478-8.056-21.322
				c0-0.493,0.012-0.979,0.034-1.464l0.085-1.807l-12.407-1.751l-0.565,1.477c-1.875,4.896-6.648,8.186-11.878,8.186
				c-7.011,0-12.715-5.703-12.715-12.714s5.704-12.715,12.715-12.715c6.557,0,12.122,5.117,12.668,11.649l0.132,1.577l12.406,1.751
				l0.421-1.753c1.21-5.029,3.663-9.763,7.095-13.685l1.208-1.381l-12.081-12.369l-1.39,1.014
				c-3.597,2.628-7.848,4.018-12.293,4.018c-11.514,0-20.881-9.367-20.881-20.883c0-11.512,9.367-20.878,20.881-20.878
				s20.881,9.366,20.881,20.878c0,4.626-1.493,9.016-4.317,12.691l-1.049,1.364l12.113,12.405l1.4-1.094
				c5.455-4.26,11.99-6.617,18.898-6.817l1.852-0.055l0.69-17.241l-1.525-0.413c-5.531-1.5-9.395-6.548-9.395-12.273
				c0-7.012,5.703-12.716,12.713-12.716c7.013,0,12.717,5.704,12.717,12.716c0,6.122-4.369,11.379-10.389,12.498l-1.556,0.29
				l-0.697,17.315l1.735,0.282c8.371,1.359,15.771,5.896,20.836,12.776l1.085,1.474l8.448-5.229l-0.78-1.61
				c-0.209-0.432-0.415-0.866-0.604-1.312c-1.347-3.186-2.028-6.562-2.028-10.041c0-3.479,0.682-6.856,2.026-10.039
				c1.297-3.066,3.156-5.822,5.525-8.189c2.371-2.373,5.127-4.232,8.192-5.526c3.178-1.346,6.554-2.026,10.036-2.026
				c3.479,0,6.856,0.682,10.037,2.025c3.07,1.298,5.826,3.156,8.19,5.525c2.373,2.37,4.231,5.124,5.525,8.19
				c1.346,3.186,2.026,6.562,2.024,10.042c0,1.719-0.171,3.439-0.51,5.119c-0.12,0.598-0.646,1.029-1.254,1.029
				c-0.083,0-0.169-0.008-0.254-0.023c-0.337-0.068-0.626-0.264-0.815-0.548c-0.188-0.286-0.257-0.628-0.188-0.962
				c0.303-1.511,0.457-3.062,0.457-4.614c0-6.193-2.414-12.022-6.8-16.415c-4.396-4.389-10.227-6.805-16.42-6.805
				c-6.19,0-12.021,2.415-16.414,6.802c-4.387,4.396-6.802,10.226-6.802,16.418c0,6.193,2.415,12.022,6.8,16.415
				c4.396,4.386,10.226,6.801,16.416,6.801c1.322,0,2.654-0.112,3.961-0.335c0.083-0.015,0.152-0.021,0.224-0.021
				c0.624,0,1.155,0.448,1.262,1.065c0.058,0.341-0.019,0.675-0.222,0.965c-0.196,0.275-0.484,0.458-0.824,0.516
				c-1.438,0.247-2.916,0.372-4.396,0.372c-3.48,0-6.857-0.682-10.037-2.024c-3.067-1.298-5.824-3.157-8.192-5.526
				c-0.553-0.554-1.103-1.158-1.633-1.794l-1.104-1.323l-8.536,5.283l0.765,1.605c2.067,4.342,3.117,8.997,3.117,13.836
				c0,2.726-0.341,5.435-1.016,8.051l-0.446,1.736l20.626,7.602l0.874-1.271c2.382-3.465,6.301-5.532,10.482-5.532
				c7.011,0,12.715,5.703,12.715,12.713c0,7.012-5.704,12.716-12.715,12.716s-12.715-5.704-12.715-12.716
				c0-0.641,0.05-1.289,0.148-1.928l0.247-1.604l-20.538-7.569l-0.777,1.636c-2.203,4.633-5.532,8.732-9.629,11.859l-1.402,1.07
				l13.655,23.048l1.552-0.573c1.76-0.649,3.613-0.979,5.506-0.979c8.812,0,15.979,7.169,15.979,15.979
				c0,8.812-7.168,15.982-15.979,15.982s-15.98-7.17-15.98-15.982c0-4.6,1.997-8.983,5.479-12.026l1.242-1.086l-13.627-22.998
				l-1.651,0.821c-4.485,2.23-9.312,3.362-14.344,3.362c-7.222,0-14.058-2.342-19.769-6.771l-1.397-1.084l-16.428,16.78l1.09,1.37
				c3.428,4.312,5.24,9.496,5.24,14.991C621.489,672.114,610.657,682.946,597.342,682.946z M597.342,637.215
				c-11.9,0-21.583,9.683-21.583,21.582c0,11.901,9.683,21.584,21.583,21.584c11.901,0,21.584-9.683,21.585-21.584
				C618.927,646.896,609.244,637.215,597.342,637.215z M691.633,652.021c-7.397,0-13.417,6.021-13.417,13.419
				c0,7.397,6.02,13.418,13.416,13.418c7.399,0,13.419-6.021,13.419-13.418C705.051,658.042,699.031,652.021,691.633,652.021z
				 M715.588,614.352c-5.597,0-10.15,4.554-10.15,10.149s4.555,10.15,10.15,10.15s10.15-4.555,10.15-10.15
				S721.185,614.352,715.588,614.352z M652.752,571.45c-16.404,0-29.749,13.347-29.749,29.751c0,16.402,13.345,29.749,29.749,29.749
				s29.749-13.347,29.749-29.749C682.501,584.797,669.156,571.45,652.752,571.45z M595.709,582.979
				c-5.597,0-10.15,4.554-10.15,10.15s4.555,10.15,10.15,10.15s10.15-4.555,10.15-10.15
				C605.859,587.531,601.306,582.979,595.709,582.979z M603.875,532.039c-10.1,0-18.316,8.216-18.316,18.314
				c0,10.1,8.218,18.315,18.316,18.315c10.1,0,18.317-8.217,18.317-18.315S613.975,532.039,603.875,532.039z M656.138,528.771
				c-5.597,0-10.149,4.553-10.149,10.148s4.554,10.15,10.149,10.15c5.599,0,10.151-4.555,10.151-10.15
				S661.735,528.771,656.138,528.771z M727.764,584.213c-0.707,0-1.281-0.575-1.281-1.283c0-0.707,0.574-1.281,1.281-1.281
				c0.708,0,1.283,0.574,1.283,1.281C729.047,583.638,728.472,584.213,727.764,584.213z"/>
		</g>
	</g>
	<g>
		<defs>
			<rect id="SVGID_17_" width="1400" height="600"/>
		</defs>
		<clipPath id="SVGID_18_">
			<use xlink:href="#SVGID_17_"  overflow="visible"/>
		</clipPath>
		<g clip-path="url(#SVGID_18_)">
			<circle fill="#FFFBE4" cx="1013.489" cy="522.76" r="34.935"/>
			<circle fill="#FFE07D" cx="1013.489" cy="522.76" r="30.619"/>
			<path fill="#FFD064" d="M1024.282,494.097c8.538,5.437,14.202,14.98,14.202,25.854c0,16.91-13.708,30.619-30.619,30.619
				c-3.799,0-7.438-0.692-10.792-1.956c4.744,3.019,10.376,4.768,16.416,4.768c16.91,0,30.619-13.709,30.619-30.619
				C1044.108,509.648,1035.867,498.461,1024.282,494.097L1024.282,494.097z"/>
			<path fill="#FFFBE4" d="M1014.562,499.903l4.029,12.403c0.464,1.428,1.792,2.394,3.29,2.394h13.046
				c1.096,0,1.553,1.398,0.664,2.044l-10.554,7.667c-1.212,0.882-1.721,2.442-1.257,3.869l4.027,12.405
				c0.34,1.041-0.853,1.905-1.735,1.265l-10.557-7.668c-1.212-0.881-2.854-0.881-4.063,0l-10.557,7.668
				c-0.886,0.644-2.074-0.224-1.736-1.265l4.03-12.405c0.465-1.427-0.047-2.987-1.259-3.869l-10.554-7.667
				c-0.886-0.646-0.43-2.044,0.664-2.044h13.045c1.499,0,2.827-0.966,3.291-2.394l4.031-12.403
				C1012.753,498.863,1014.226,498.863,1014.562,499.903L1014.562,499.903z"/>
			<path d="M1013.489,486.771c-9.068,0-17.731,3.384-24.396,9.524c-0.427,0.396-0.454,1.062-0.06,1.49
				c0.394,0.428,1.062,0.455,1.49,0.06c6.271-5.78,14.426-8.969,22.963-8.969c18.682,0,33.881,15.198,33.881,33.881
				c0,18.686-15.199,33.881-33.881,33.881c-18.685,0-33.881-15.195-33.881-33.881c0-7.771,2.695-15.363,7.595-21.378
				c0.368-0.452,0.301-1.116-0.151-1.481c-0.451-0.367-1.116-0.302-1.48,0.149c-5.202,6.392-8.068,14.455-8.068,22.71
				c0,9.613,3.743,18.65,10.541,25.448s15.835,10.541,25.448,10.541c9.612,0,18.647-3.743,25.448-10.541
				c6.798-6.798,10.541-15.835,10.541-25.448c0-9.611-3.743-18.647-10.541-25.447
				C1032.139,490.514,1023.104,486.771,1013.489,486.771L1013.489,486.771z"/>
			<path d="M1042.258,533.32c0.557,0.182,1.149-0.12,1.331-0.673c1.044-3.186,1.574-6.511,1.574-9.891
				c0-8.46-3.296-16.414-9.277-22.396c-5.979-5.982-13.937-9.277-22.396-9.277s-16.414,3.296-22.396,9.277
				c-5.979,5.979-9.274,13.937-9.274,22.396s3.296,16.414,9.274,22.396c5.982,5.979,13.938,9.275,22.396,9.275
				c5.916,0,11.686-1.642,16.687-4.747c4.862-3.02,8.822-7.299,11.452-12.373c0.271-0.519,0.066-1.151-0.449-1.422
				c-0.519-0.268-1.151-0.063-1.423,0.451c-5.104,9.857-15.173,15.981-26.267,15.981c-16.302,0-29.564-13.265-29.564-29.564
				s13.266-29.562,29.564-29.562s29.564,13.263,29.564,29.562c0,3.156-0.494,6.261-1.472,9.229
				C1041.403,532.543,1041.704,533.139,1042.258,533.32L1042.258,533.32z"/>
			<path d="M1025.66,525.265l10.554-7.668c0.78-0.563,1.092-1.521,0.794-2.438s-1.113-1.509-2.077-1.509h-13.046
				c-1.045,0-1.965-0.671-2.286-1.663l-4.032-12.406c-0.298-0.917-1.11-1.509-2.074-1.509c-0.967,0-1.779,0.592-2.077,1.509
				l-4.031,12.407c-0.322,0.991-1.242,1.662-2.287,1.662h-2.646c-0.583,0-1.058,0.472-1.058,1.054c0,0.583,0.475,1.055,1.058,1.055
				h2.646c1.961,0,3.688-1.254,4.293-3.119l4.03-12.403c0.011-0.031,0.018-0.056,0.072-0.056c0.056,0,0.062,0.021,0.069,0.056
				l4.031,12.403c0.605,1.865,2.331,3.119,4.293,3.119h13.045c0.032,0,0.058,0,0.071,0.052c0.018,0.056-0.001,0.066-0.027,0.084
				l-10.553,7.669c-1.587,1.152-2.246,3.184-1.64,5.05l4.03,12.402c0.01,0.03,0.018,0.056-0.027,0.085
				c-0.044,0.032-0.062,0.021-0.088,0l-10.554-7.668c-1.591-1.15-3.724-1.15-5.31,0l-10.554,7.668c-0.026,0.021-0.044,0.032-0.089,0
				c-0.044-0.029-0.037-0.055-0.027-0.085l4.031-12.402c0.604-1.866-0.053-3.896-1.643-5.05l-10.554-7.669
				c-0.024-0.018-0.045-0.028-0.028-0.084c0.021-0.052,0.041-0.052,0.072-0.052h5.479c0.582,0,1.054-0.472,1.054-1.055
				c0-0.582-0.472-1.054-1.054-1.054h-5.479c-0.964,0-1.777,0.592-2.077,1.509c-0.298,0.917,0.017,1.875,0.794,2.438l10.557,7.668
				c0.845,0.614,1.193,1.695,0.873,2.689l-4.031,12.407c-0.298,0.916,0.014,1.875,0.793,2.438c0.781,0.567,1.789,0.566,2.568,0
				l10.554-7.668c0.846-0.614,1.979-0.614,2.828,0l10.554,7.668c0.779,0.567,1.787,0.566,2.567,0
				c0.778-0.563,1.092-1.522,0.794-2.438l-4.032-12.407C1024.464,526.96,1024.814,525.879,1025.66,525.265L1025.66,525.265z"/>
		</g>
	</g>
	<g>
		<defs>
			<rect id="SVGID_19_" width="1400" height="600"/>
		</defs>
		<clipPath id="SVGID_20_">
			<use xlink:href="#SVGID_19_"  overflow="visible"/>
		</clipPath>
		<g clip-path="url(#SVGID_20_)">
			<circle fill="#FFFBE4" cx="1051.271" cy="579.663" r="63.09"/>
			<circle fill="#FFE07D" cx="1051.271" cy="579.663" r="55.296"/>
			<path fill="#FFD064" d="M1070.763,527.899c15.419,9.812,25.648,27.054,25.648,46.687c0,30.538-24.756,55.296-55.296,55.296
				c-6.86,0-13.432-1.251-19.49-3.532c8.568,5.451,18.738,8.609,29.646,8.609c30.539,0,55.296-24.757,55.296-55.296
				C1106.567,555.985,1091.686,535.781,1070.763,527.899L1070.763,527.899z"/>
			<path fill="#FFFBE4" d="M1053.212,538.386l7.28,22.405c0.837,2.573,3.234,4.317,5.941,4.317h23.56
				c1.976,0,2.799,2.527,1.199,3.688l-19.062,13.849c-2.188,1.594-3.104,4.41-2.27,6.985l7.275,22.404
				c0.612,1.881-1.538,3.442-3.139,2.282l-19.06-13.851c-2.188-1.591-5.155-1.591-7.347,0l-19.06,13.851
				c-1.603,1.16-3.751-0.401-3.144-2.282l7.28-22.404c0.838-2.575-0.081-5.395-2.27-6.985l-19.062-13.849
				c-1.6-1.16-0.773-3.688,1.199-3.688h23.559c2.707,0,5.105-1.744,5.943-4.317l7.28-22.405
				C1049.941,536.508,1052.602,536.508,1053.212,538.386L1053.212,538.386z"/>
		</g>
	</g>
	<g>
		<defs>
			<rect id="SVGID_21_" width="1400" height="600"/>
		</defs>
		<clipPath id="SVGID_22_">
			<use xlink:href="#SVGID_21_"  overflow="visible"/>
		</clipPath>
		<g clip-path="url(#SVGID_22_)">
			<g>
				<circle fill="#FFDA8F" cx="30.082" cy="581.43" r="5.396"/>
				<circle fill="#FFDA8F" cx="351.065" cy="484.366" r="5.396"/>
				<circle fill="#FFDA8F" cx="24.686" cy="380.269" r="5.396"/>
				<circle fill="#FFDA8F" cx="54.362" cy="351.47" r="5.396"/>
			</g>
			<g>
				<circle cx="255.251" cy="575.226" r="2.698"/>
				<path d="M30.082,589.523c4.463,0,8.093-3.634,8.093-8.097s-3.63-8.094-8.093-8.094s-8.094,3.631-8.094,8.094
					S25.619,589.523,30.082,589.523z M30.082,578.731c1.487,0,2.698,1.21,2.698,2.695c0,1.487-1.21,2.697-2.698,2.697
					s-2.698-1.21-2.698-2.697C27.384,579.941,28.594,578.731,30.082,578.731z"/>
				<path d="M351.065,492.46c4.463,0,8.094-3.631,8.094-8.094s-3.631-8.094-8.094-8.094c-4.465,0-8.096,3.631-8.096,8.094
					S346.603,492.46,351.065,492.46z M351.065,481.669c1.485,0,2.695,1.209,2.695,2.697c0,1.485-1.21,2.696-2.695,2.696
					c-1.488,0-2.698-1.211-2.698-2.696C348.367,482.878,349.577,481.669,351.065,481.669z"/>
				<path d="M24.686,388.363c4.462,0,8.094-3.631,8.094-8.094s-3.631-8.097-8.094-8.097s-8.093,3.634-8.093,8.097
					S20.223,388.363,24.686,388.363z M24.686,377.572c1.488,0,2.698,1.209,2.698,2.697c0,1.485-1.21,2.694-2.698,2.694
					s-2.698-1.209-2.698-2.694C21.988,378.781,23.198,377.572,24.686,377.572z"/>
				<path d="M54.362,359.562c4.463,0,8.094-3.631,8.094-8.092c0-4.466-3.631-8.097-8.094-8.097c-4.463,0-8.093,3.631-8.093,8.097
					C46.269,355.934,49.899,359.562,54.362,359.562z M54.362,348.771c1.487,0,2.698,1.211,2.698,2.699
					c0,1.483-1.21,2.694-2.698,2.694c-1.488,0-2.698-1.211-2.698-2.694C51.664,349.982,52.875,348.771,54.362,348.771z"/>
				<circle cx="285.198" cy="576.844" r="2.698"/>
				<circle cx="46.269" cy="372.513" r="2.698"/>
				<circle cx="967.533" cy="567.236" r="2.698"/>
				<circle cx="36.556" cy="406.236" r="2.698"/>
				<circle cx="15.513" cy="419.996" r="2.698"/>
				<circle cx="958.36" cy="583.693" r="2.698"/>
				<circle cx="36.152" cy="551.189" r="2.698"/>
				<circle cx="24.011" cy="561.171" r="2.698"/>
				<circle cx="50.865" cy="582.751" r="2.698"/>
				<circle cx="963.969" cy="474.595" r="2.698"/>
			</g>
		</g>
	</g>
	<g>
		<defs>
			<rect id="SVGID_23_" width="1400" height="600"/>
		</defs>
		<clipPath id="SVGID_24_">
			<use xlink:href="#SVGID_23_"  overflow="visible"/>
		</clipPath>
		<g clip-path="url(#SVGID_24_)">
			<g>
				<circle fill="#FFDA8F" cx="1348.812" cy="421.644" r="5.396"/>
				<circle fill="#FFDA8F" cx="1369.045" cy="397.902" r="5.396"/>
				<circle fill="#FFDA8F" cx="1378.488" cy="476.262" r="5.396"/>
			</g>
			<g>
				<circle cx="1316.977" cy="394.665" r="2.698"/>
				<path d="M1348.812,429.737c4.463,0,8.093-3.631,8.093-8.097c0-4.463-3.63-8.094-8.093-8.094c-4.466,0-8.097,3.631-8.097,8.094
					C1340.718,426.106,1344.349,429.737,1348.812,429.737z M1348.812,418.945c1.484,0,2.695,1.21,2.695,2.695
					c0,1.487-1.211,2.697-2.695,2.697c-1.487,0-2.698-1.21-2.698-2.697C1346.113,420.155,1347.324,418.945,1348.812,418.945z"/>
				<path d="M1369.045,405.996c4.463,0,8.094-3.631,8.094-8.094s-3.631-8.094-8.094-8.094s-8.094,3.631-8.094,8.094
					S1364.582,405.996,1369.045,405.996z M1369.045,395.205c1.488,0,2.698,1.209,2.698,2.697c0,1.485-1.21,2.694-2.698,2.694
					s-2.697-1.209-2.697-2.694C1366.348,396.414,1367.557,395.205,1369.045,395.205z"/>
				<path d="M1378.488,484.355c4.463,0,8.094-3.634,8.094-8.096c0-4.463-3.631-8.094-8.094-8.094s-8.094,3.631-8.094,8.094
					S1374.025,484.355,1378.488,484.355z M1378.488,473.562c1.484,0,2.697,1.212,2.697,2.697c0,1.486-1.213,2.697-2.697,2.697
					c-1.488,0-2.698-1.211-2.698-2.697C1375.79,474.774,1377.001,473.562,1378.488,473.562z"/>
				<circle cx="1346.923" cy="396.284" r="2.698"/>
				<circle cx="1096.07" cy="482.965" r="2.698"/>
				<circle cx="1372.822" cy="423.532" r="2.698"/>
				<circle cx="1383.885" cy="507.291" r="2.698"/>
				<circle cx="1392.246" cy="447.003" r="2.698"/>
				<circle cx="1363.649" cy="439.989" r="2.698"/>
				<circle cx="1306.5" cy="437.291" r="2.698"/>
				<circle cx="1336.671" cy="449.971" r="2.698"/>
				<circle cx="1325.879" cy="466.428" r="2.698"/>
				<circle cx="1381.186" cy="378.478" r="2.698"/>
			</g>
		</g>
	</g>
	<g>
		<defs>
			<rect id="SVGID_25_" width="1400" height="600"/>
		</defs>
		<clipPath id="SVGID_26_">
			<use xlink:href="#SVGID_25_"  overflow="visible"/>
		</clipPath>
		<path clip-path="url(#SVGID_26_)" d="M557.469,509.271c-2.223,0-4.5-0.605-6.769-1.801c-3.01-1.577-5.974-4.126-8.806-7.577
			c-5.268-6.436-9.66-15.562-12.369-25.699l-0.215-0.801l-42.332,10.12l2.36,9.875c0.091,0.383,0.028,0.777-0.179,1.114
			c-0.206,0.337-0.529,0.572-0.91,0.663c-0.113,0.027-0.228,0.041-0.341,0.041c-0.686,0-1.275-0.468-1.438-1.137l-2.357-9.872
			l-10.212,2.44c-0.114,0.027-0.229,0.041-0.344,0.041c-0.683,0-1.271-0.466-1.431-1.134c-0.092-0.383-0.029-0.778,0.177-1.114
			c0.206-0.335,0.529-0.569,0.911-0.661l10.219-2.443l-0.174-0.812c-1.875-8.724-2.529-17.428-1.895-25.171
			c0.346-4.13,1.038-7.916,2.057-11.253c1.04-3.407,2.426-6.345,4.12-8.731c1.16-1.635,2.477-2.997,3.915-4.055
			c1.499-1.104,3.128-1.871,4.843-2.28c1.001-0.239,2.028-0.361,3.055-0.361c0.644,0,1.302,0.047,1.954,0.14
			c1.648,0.229,3.32,0.747,4.971,1.537c3.194,1.52,6.369,4.025,9.435,7.453c0.264,0.294,0.396,0.674,0.375,1.07
			c-0.021,0.391-0.195,0.751-0.488,1.014c-0.183,0.164-0.402,0.28-0.635,0.336c-0.113,0.027-0.229,0.041-0.345,0.041
			c-0.418,0-0.818-0.18-1.097-0.492c-2.757-3.093-5.697-5.431-8.502-6.761c-1.926-0.91-3.718-1.365-5.479-1.39l-1.093-0.018
			l10.433,43.645l19.721-4.714l-0.223-0.842c-1.154-4.372-2.591-8.589-4.268-12.533c-0.156-0.36-0.161-0.764-0.014-1.134
			c0.146-0.361,0.426-0.646,0.789-0.803c0.071-0.029,0.154-0.058,0.237-0.078c0.11-0.024,0.227-0.039,0.342-0.039
			c0.589,0,1.12,0.354,1.352,0.898c1.745,4.094,3.237,8.481,4.438,13.043l0.211,0.804l36.573-8.745l-2.351-9.84
			c-0.093-0.383-0.029-0.778,0.177-1.114s0.529-0.57,0.911-0.661c0.115-0.027,0.229-0.042,0.344-0.042
			c0.683,0,1.271,0.466,1.43,1.133l2.354,9.841l13.043-2.955l-5.659-2.997c-0.582-0.567-0.595-1.503-0.029-2.086
			c0.279-0.288,0.653-0.446,1.055-0.446c0.385,0,0.749,0.148,1.024,0.419l7.579,4.865c0.406,0.396,0.55,1,0.367,1.539l-4.629,7.458
			c-0.164,0.479-0.558,0.837-1.055,0.958c-0.11,0.025-0.225,0.039-0.336,0.039c-0.162,0-0.323-0.027-0.479-0.081
			c-0.768-0.262-1.178-1.103-0.916-1.873l3.765-4.922l-13.055,2.956l0.171,0.811c1.592,7.527,2.145,15.043,1.595,21.733
			c-0.304,3.619-0.909,6.935-1.8,9.853c-0.916,2.989-2.136,5.57-3.625,7.671c-2.094,2.949-4.772,4.887-7.75,5.601
			C559.289,509.163,558.378,509.271,557.469,509.271z M532.173,472.704l0.228,0.844c1.908,7.118,4.688,13.756,8.037,19.195
			c3.523,5.749,7.652,10.05,11.625,12.108c1.695,0.882,3.271,1.354,4.819,1.448l1.146,0.07l-9.014-37.694L532.173,472.704z
			 M551.877,467.99l9.012,37.69l0.989-0.577c1.334-0.776,2.526-1.911,3.646-3.471c1.719-2.4,3.084-5.744,3.947-9.667
			c1.696-7.653,1.493-17.296-0.572-27.146l-0.18-0.855L551.877,467.99z M494.615,432.797c-1.721,0.913-3.292,2.352-4.673,4.273
			c-1.992,2.794-3.568,6.652-4.56,11.163c-1.943,8.792-1.677,20.294,0.732,31.556l0.182,0.853l19.725-4.719l-10.437-43.641
			L494.615,432.797z M520.751,448.715c-0.813,0-1.475-0.662-1.475-1.475c0-0.813,0.661-1.476,1.475-1.476s1.475,0.662,1.475,1.476
			C522.226,448.053,521.564,448.715,520.751,448.715z"/>
	</g>
	<g>
		<defs>
			<rect id="SVGID_27_" width="1400" height="600"/>
		</defs>
		<clipPath id="SVGID_28_">
			<use xlink:href="#SVGID_27_"  overflow="visible"/>
		</clipPath>
		<path clip-path="url(#SVGID_28_)" d="M1051.271,643.807c-17.136,0-33.242-6.672-45.357-18.787
			c-12.114-12.114-18.786-28.223-18.786-45.355c0-14.718,5.106-29.092,14.378-40.477c0.201-0.246,0.5-0.389,0.821-0.389
			c0.171,0,0.424,0.041,0.663,0.235c0.218,0.178,0.354,0.431,0.382,0.711s-0.054,0.555-0.231,0.771
			c-8.969,11.017-13.907,24.917-13.907,39.146c0,34.207,27.831,62.037,62.038,62.037s62.037-27.83,62.037-62.037
			c0-34.208-27.83-62.039-62.037-62.039c-15.632,0-30.563,5.832-42.048,16.423c-0.195,0.181-0.448,0.28-0.715,0.28
			c-0.297,0-0.571-0.12-0.771-0.338c-0.396-0.428-0.369-1.097,0.058-1.489c11.876-10.95,27.316-16.98,43.479-16.98
			c17.134,0,33.24,6.673,45.354,18.787s18.786,28.223,18.786,45.356s-6.672,33.241-18.786,45.355
			C1084.512,637.135,1068.404,643.807,1051.271,643.807z M1051.271,636.014c-15.05,0-29.199-5.861-39.844-16.508
			c-10.645-10.642-16.506-24.792-16.506-39.843c0-15.049,5.861-29.199,16.506-39.845c10.644-10.646,24.793-16.506,39.844-16.506
			c15.05,0,29.199,5.86,39.845,16.506c10.645,10.644,16.506,24.794,16.506,39.845c0,6.007-0.942,11.925-2.801,17.589
			c-0.144,0.436-0.546,0.729-1.002,0.729l0,0c-0.111,0-0.223-0.019-0.328-0.054c-0.269-0.088-0.484-0.273-0.611-0.524
			s-0.146-0.537-0.059-0.807c1.788-5.455,2.694-11.151,2.694-16.935c0-29.91-24.334-54.243-54.244-54.243
			c-29.908,0-54.241,24.333-54.241,54.243c0,29.909,24.333,54.242,54.241,54.242c20.354,0,38.82-11.234,48.192-29.318
			c0.183-0.352,0.541-0.569,0.938-0.569c0.17,0,0.333,0.04,0.485,0.119c0.513,0.266,0.714,0.902,0.446,1.418
			c-4.68,9.03-11.725,16.644-20.375,22.015C1072.062,633.093,1061.795,636.014,1051.271,636.014z M1075.204,615.775
			c-0.646,0-1.274-0.209-1.817-0.604l-19.06-13.85c-0.896-0.65-1.952-0.993-3.054-0.993c-1.103,0-2.157,0.343-3.054,0.992
			l-19.061,13.851c-0.545,0.396-1.175,0.604-1.82,0.604c-0.645,0-1.274-0.209-1.819-0.604c-1.104-0.802-1.547-2.159-1.123-3.457
			l7.279-22.407c0.699-2.146-0.06-4.479-1.886-5.807l-19.061-13.849c-1.106-0.802-1.548-2.158-1.125-3.459
			c0.421-1.298,1.575-2.138,2.941-2.138h9.893c0.581,0,1.053,0.473,1.053,1.054c0,0.58-0.472,1.052-1.053,1.052h-9.893
			c-0.443,0-0.795,0.252-0.937,0.675c-0.146,0.448,0.005,0.88,0.393,1.133l19.025,13.825c2.564,1.866,3.632,5.146,2.651,8.164
			l-7.278,22.403c-0.129,0.433,0.001,0.831,0.341,1.091l0.229,0.176l0.372,0.035c0.305,0,0.509-0.148,0.576-0.198l19.061-13.85
			c1.26-0.915,2.742-1.399,4.291-1.399s3.032,0.484,4.293,1.4l19.283,14.012l0.354,0.034c0.143,0,0.359-0.034,0.585-0.198
			c0.358-0.26,0.494-0.672,0.356-1.098l-7.279-22.408c-0.979-3.017,0.087-6.297,2.652-8.164l19.06-13.85
			c0.353-0.229,0.503-0.661,0.356-1.104c-0.134-0.422-0.483-0.68-0.937-0.68h-23.56c-3.174,0-5.964-2.027-6.943-5.045l-7.279-22.405
			c-0.168-0.445-0.513-0.683-0.939-0.683c-0.205,0-0.704,0.062-0.925,0.635l-7.293,22.453c-0.981,3.018-3.772,5.045-6.943,5.045
			h-4.78c-0.582,0-1.055-0.472-1.055-1.052c0-0.581,0.473-1.053,1.055-1.053h4.78c2.259,0,4.244-1.443,4.938-3.592l7.28-22.404
			c0.42-1.3,1.574-2.138,2.941-2.138c1.365,0,2.521,0.839,2.942,2.138l7.28,22.404c0.693,2.147,2.678,3.592,4.938,3.592h23.562
			c1.366,0,2.521,0.839,2.942,2.137c0.422,1.3-0.021,2.657-1.126,3.458l-19.062,13.85c-1.826,1.327-2.583,3.661-1.883,5.809
			l7.282,22.404c0.422,1.298-0.021,2.655-1.126,3.459C1076.479,615.566,1075.85,615.775,1075.204,615.775z"/>
	</g>
</g>
</svg>
